<?xml version="1.0" encoding="UTF-8"?>
<svg xmlns="http://www.w3.org/2000/svg" xmlns:xlink="http://www.w3.org/1999/xlink" width="77pt" height="88pt" viewBox="0 0 77 88" version="1.1">
<g id="surface1">
<path style="fill:none;stroke-width:0.79701;stroke-linecap:butt;stroke-linejoin:miter;stroke:rgb(0%,0%,0%);stroke-opacity:1;stroke-miterlimit:10;" d="M 0.00175 -68.035469 L -34.017781 -0.0003125 " transform="matrix(1,0,0,-1,38.342,15.57)"/>
<path style="fill:none;stroke-width:0.79701;stroke-linecap:butt;stroke-linejoin:miter;stroke:rgb(0%,0%,0%);stroke-opacity:1;stroke-miterlimit:10;" d="M 0.00175 -68.035469 L 34.017375 -0.0003125 " transform="matrix(1,0,0,-1,38.342,15.57)"/>
<path style="fill:none;stroke-width:0.79701;stroke-linecap:butt;stroke-linejoin:miter;stroke:rgb(0%,0%,0%);stroke-opacity:1;stroke-miterlimit:10;" d="M 0.00175 -68.035469 L -11.338094 -11.340156 " transform="matrix(1,0,0,-1,38.342,15.57)"/>
<path style="fill:none;stroke-width:0.79701;stroke-linecap:butt;stroke-linejoin:miter;stroke:rgb(0%,0%,0%);stroke-opacity:1;stroke-miterlimit:10;" d="M 0.00175 -68.035469 L 11.337688 -11.340156 " transform="matrix(1,0,0,-1,38.342,15.57)"/>
<path style="fill:none;stroke-width:0.79701;stroke-linecap:butt;stroke-linejoin:miter;stroke:rgb(0%,0%,0%);stroke-opacity:1;stroke-miterlimit:10;" d="M -11.338094 -11.340156 L -34.017781 -0.0003125 L -9.072469 11.339531 L -11.338094 -11.340156 " transform="matrix(1,0,0,-1,38.342,15.57)"/>
<path style="fill:none;stroke-width:0.79701;stroke-linecap:butt;stroke-linejoin:miter;stroke:rgb(0%,0%,0%);stroke-opacity:1;stroke-miterlimit:10;" d="M -9.072469 11.339531 L 9.072063 11.339531 L 34.017375 -0.0003125 L 11.337688 -11.340156 L 9.072063 11.339531 " transform="matrix(1,0,0,-1,38.342,15.57)"/>
<path style="fill-rule:nonzero;fill:rgb(100%,94.898987%,0%);fill-opacity:1;stroke-width:0.3985;stroke-linecap:butt;stroke-linejoin:miter;stroke:rgb(100%,0%,0%);stroke-opacity:1;stroke-miterlimit:10;" d="M 1.700969 -68.035469 C 1.700969 -67.094063 0.93925 -66.332344 0.00175 -66.332344 C -0.939656 -66.332344 -1.701375 -67.094063 -1.701375 -68.035469 C -1.701375 -68.972969 -0.939656 -69.734688 0.00175 -69.734688 C 0.93925 -69.734688 1.700969 -68.972969 1.700969 -68.035469 Z M 1.700969 -68.035469 " transform="matrix(1,0,0,-1,38.342,15.57)"/>
<path style="fill-rule:nonzero;fill:rgb(100%,94.898987%,0%);fill-opacity:1;stroke-width:0.3985;stroke-linecap:butt;stroke-linejoin:miter;stroke:rgb(100%,0%,0%);stroke-opacity:1;stroke-miterlimit:10;" d="M -32.314656 -0.0003125 C -32.314656 0.941094 -33.076375 1.698906 -34.017781 1.698906 C -34.955281 1.698906 -35.717 0.941094 -35.717 -0.0003125 C -35.717 -0.937812 -34.955281 -1.699531 -34.017781 -1.699531 C -33.076375 -1.699531 -32.314656 -0.937812 -32.314656 -0.0003125 Z M -32.314656 -0.0003125 " transform="matrix(1,0,0,-1,38.342,15.57)"/>
<path style="fill-rule:nonzero;fill:rgb(100%,94.898987%,0%);fill-opacity:1;stroke-width:0.3985;stroke-linecap:butt;stroke-linejoin:miter;stroke:rgb(100%,0%,0%);stroke-opacity:1;stroke-miterlimit:10;" d="M 35.716594 -0.0003125 C 35.716594 0.941094 34.954875 1.698906 34.017375 1.698906 C 33.075969 1.698906 32.31425 0.941094 32.31425 -0.0003125 C 32.31425 -0.937812 33.075969 -1.699531 34.017375 -1.699531 C 34.954875 -1.699531 35.716594 -0.937812 35.716594 -0.0003125 Z M 35.716594 -0.0003125 " transform="matrix(1,0,0,-1,38.342,15.57)"/>
<path style="fill-rule:nonzero;fill:rgb(100%,94.898987%,0%);fill-opacity:1;stroke-width:0.3985;stroke-linecap:butt;stroke-linejoin:miter;stroke:rgb(100%,0%,0%);stroke-opacity:1;stroke-miterlimit:10;" d="M -9.638875 -11.340156 C -9.638875 -10.39875 -10.400594 -9.637031 -11.338094 -9.637031 C -12.2795 -9.637031 -13.041219 -10.39875 -13.041219 -11.340156 C -13.041219 -12.277656 -12.2795 -13.039375 -11.338094 -13.039375 C -10.400594 -13.039375 -9.638875 -12.277656 -9.638875 -11.340156 Z M -9.638875 -11.340156 " transform="matrix(1,0,0,-1,38.342,15.57)"/>
<path style="fill-rule:nonzero;fill:rgb(100%,94.898987%,0%);fill-opacity:1;stroke-width:0.3985;stroke-linecap:butt;stroke-linejoin:miter;stroke:rgb(100%,0%,0%);stroke-opacity:1;stroke-miterlimit:10;" d="M -7.369344 11.339531 C -7.369344 12.277031 -8.131062 13.03875 -9.072469 13.03875 C -10.009969 13.03875 -10.771687 12.277031 -10.771687 11.339531 C -10.771687 10.398125 -10.009969 9.636406 -9.072469 9.636406 C -8.131062 9.636406 -7.369344 10.398125 -7.369344 11.339531 Z M -7.369344 11.339531 " transform="matrix(1,0,0,-1,38.342,15.57)"/>
<path style="fill-rule:nonzero;fill:rgb(100%,94.898987%,0%);fill-opacity:1;stroke-width:0.3985;stroke-linecap:butt;stroke-linejoin:miter;stroke:rgb(100%,0%,0%);stroke-opacity:1;stroke-miterlimit:10;" d="M 13.040813 -11.340156 C 13.040813 -10.39875 12.279094 -9.637031 11.337688 -9.637031 C 10.400188 -9.637031 9.638469 -10.39875 9.638469 -11.340156 C 9.638469 -12.277656 10.400188 -13.039375 11.337688 -13.039375 C 12.279094 -13.039375 13.040813 -12.277656 13.040813 -11.340156 Z M 13.040813 -11.340156 " transform="matrix(1,0,0,-1,38.342,15.57)"/>
<path style="fill-rule:nonzero;fill:rgb(100%,94.898987%,0%);fill-opacity:1;stroke-width:0.3985;stroke-linecap:butt;stroke-linejoin:miter;stroke:rgb(100%,0%,0%);stroke-opacity:1;stroke-miterlimit:10;" d="M 10.771281 11.339531 C 10.771281 12.277031 10.009563 13.03875 9.072063 13.03875 C 8.130656 13.03875 7.368938 12.277031 7.368938 11.339531 C 7.368938 10.398125 8.130656 9.636406 9.072063 9.636406 C 10.009563 9.636406 10.771281 10.398125 10.771281 11.339531 Z M 10.771281 11.339531 " transform="matrix(1,0,0,-1,38.342,15.57)"/>
<path style="fill:none;stroke-width:0.79701;stroke-linecap:butt;stroke-linejoin:miter;stroke:rgb(0%,0%,0%);stroke-opacity:1;stroke-miterlimit:10;" d="M 0.00175 -70.8675 L 0.00175 -65.199531 " transform="matrix(1,0,0,-1,38.342,15.57)"/>
<path style="fill-rule:nonzero;fill:rgb(100%,50%,0%);fill-opacity:1;stroke-width:1.59404;stroke-linecap:butt;stroke-linejoin:miter;stroke:rgb(100%,50%,0%);stroke-opacity:1;stroke-miterlimit:10;" d="M 0.00175 -70.8675 C 0.00175 -70.8675 0.267375 -70.855781 0.368938 -70.840156 C 0.4705 -70.828438 0.634563 -70.797188 0.732219 -70.769844 C 0.833781 -70.7425 0.990031 -70.687813 1.083781 -70.64875 C 1.177531 -70.609688 1.329875 -70.539375 1.415813 -70.484688 C 1.505656 -70.433906 1.642375 -70.344063 1.724406 -70.281563 C 1.806438 -70.219063 1.931438 -70.109688 2.005656 -70.035469 C 2.075969 -69.96125 2.185344 -69.83625 2.247844 -69.758125 C 2.310344 -69.676094 2.404094 -69.539375 2.454875 -69.449531 C 2.505656 -69.359688 2.579875 -69.21125 2.618938 -69.1175 C 2.658 -69.019844 2.712688 -68.863594 2.736125 -68.765938 C 2.763469 -68.664375 2.798625 -68.504219 2.810344 -68.402656 C 2.822063 -68.301094 2.833781 -68.133125 2.833781 -68.031563 C 2.833781 -67.93 2.822063 -67.762031 2.810344 -67.660469 C 2.798625 -67.558906 2.763469 -67.39875 2.736125 -67.297188 C 2.712688 -67.199531 2.658 -67.043281 2.618938 -66.945625 C 2.579875 -66.851875 2.505656 -66.703438 2.454875 -66.613594 C 2.404094 -66.52375 2.310344 -66.387031 2.247844 -66.305 C 2.185344 -66.222969 2.075969 -66.097969 2.005656 -66.027656 C 1.931438 -65.953438 1.806438 -65.844063 1.724406 -65.781563 C 1.642375 -65.719063 1.505656 -65.629219 1.415813 -65.574531 C 1.329875 -65.52375 1.177531 -65.453438 1.083781 -65.414375 C 0.990031 -65.371406 0.833781 -65.320625 0.732219 -65.293281 C 0.634563 -65.265938 0.4705 -65.234688 0.368938 -65.222969 C 0.267375 -65.207344 0.00175 -65.195625 0.00175 -65.195625 " transform="matrix(1,0,0,-1,38.342,15.57)"/>
<path style="fill-rule:nonzero;fill:rgb(0%,0%,100%);fill-opacity:1;stroke-width:1.59404;stroke-linecap:butt;stroke-linejoin:miter;stroke:rgb(0%,0%,100%);stroke-opacity:1;stroke-miterlimit:10;" d="M 0.00175 -65.195625 C 0.00175 -65.195625 -0.267781 -65.207344 -0.369344 -65.222969 C -0.470906 -65.234688 -0.634969 -65.265938 -0.732625 -65.293281 C -0.834187 -65.320625 -0.990437 -65.371406 -1.084187 -65.414375 C -1.177937 -65.453438 -1.330281 -65.52375 -1.416219 -65.574531 C -1.506062 -65.629219 -1.642781 -65.719063 -1.724812 -65.781563 C -1.806844 -65.844063 -1.931844 -65.953438 -2.006062 -66.027656 C -2.076375 -66.097969 -2.18575 -66.222969 -2.24825 -66.305 C -2.31075 -66.387031 -2.4045 -66.52375 -2.455281 -66.613594 C -2.506062 -66.703438 -2.580281 -66.851875 -2.619344 -66.945625 C -2.658406 -67.043281 -2.713094 -67.199531 -2.736531 -67.297188 C -2.763875 -67.39875 -2.795125 -67.558906 -2.81075 -67.660469 C -2.822469 -67.762031 -2.834187 -67.93 -2.834187 -68.031563 C -2.834187 -68.133125 -2.822469 -68.301094 -2.81075 -68.402656 C -2.795125 -68.504219 -2.763875 -68.664375 -2.736531 -68.765938 C -2.713094 -68.863594 -2.658406 -69.019844 -2.619344 -69.1175 C -2.580281 -69.21125 -2.506062 -69.359688 -2.455281 -69.449531 C -2.4045 -69.539375 -2.31075 -69.676094 -2.24825 -69.758125 C -2.18575 -69.83625 -2.076375 -69.96125 -2.006062 -70.035469 C -1.931844 -70.109688 -1.806844 -70.219063 -1.724812 -70.281563 C -1.642781 -70.344063 -1.506062 -70.433906 -1.416219 -70.484688 C -1.330281 -70.539375 -1.177937 -70.609688 -1.084187 -70.64875 C -0.990437 -70.687813 -0.834187 -70.7425 -0.732625 -70.769844 C -0.634969 -70.797188 -0.470906 -70.828438 -0.369344 -70.840156 C -0.267781 -70.855781 0.00175 -70.8675 0.00175 -70.8675 " transform="matrix(1,0,0,-1,38.342,15.57)"/>
<path style="fill:none;stroke-width:0.79701;stroke-linecap:butt;stroke-linejoin:miter;stroke:rgb(0%,0%,0%);stroke-opacity:1;stroke-miterlimit:10;" d="M -34.017781 -2.83625 L -34.017781 2.835625 " transform="matrix(1,0,0,-1,38.342,15.57)"/>
<path style="fill-rule:nonzero;fill:rgb(50%,50%,50%);fill-opacity:1;stroke-width:1.59404;stroke-linecap:butt;stroke-linejoin:miter;stroke:rgb(50%,50%,50%);stroke-opacity:1;stroke-miterlimit:10;" d="M -34.013875 -2.83625 C -34.013875 -2.83625 -33.74825 -2.824531 -33.646687 -2.808906 C -33.545125 -2.797187 -33.381062 -2.765937 -33.283406 -2.738594 C -33.181844 -2.71125 -33.025594 -2.656562 -32.931844 -2.6175 C -32.838094 -2.578437 -32.68575 -2.508125 -32.599812 -2.453437 C -32.509969 -2.402656 -32.37325 -2.312812 -32.291219 -2.250312 C -32.209187 -2.187812 -32.084187 -2.078437 -32.009969 -2.004219 C -31.939656 -1.93 -31.830281 -1.805 -31.767781 -1.726875 C -31.705281 -1.644844 -31.611531 -1.508125 -31.56075 -1.418281 C -31.509969 -1.328437 -31.43575 -1.18 -31.396687 -1.08625 C -31.357625 -0.988594 -31.302937 -0.832344 -31.2795 -0.734687 C -31.252156 -0.633125 -31.217 -0.472969 -31.205281 -0.371406 C -31.193562 -0.269844 -31.181844 -0.101875 -31.181844 -0.0003125 C -31.181844 0.10125 -31.193562 0.269219 -31.205281 0.370781 C -31.217 0.472344 -31.252156 0.6325 -31.2795 0.734063 C -31.302937 0.831719 -31.357625 0.987969 -31.396687 1.085625 C -31.43575 1.179375 -31.509969 1.327813 -31.56075 1.417656 C -31.611531 1.5075 -31.705281 1.644219 -31.767781 1.72625 C -31.830281 1.808281 -31.939656 1.933281 -32.009969 2.003594 C -32.084187 2.077813 -32.209187 2.187188 -32.291219 2.249688 C -32.37325 2.312188 -32.509969 2.402031 -32.599812 2.456719 C -32.68575 2.5075 -32.838094 2.577813 -32.931844 2.616875 C -33.025594 2.659844 -33.181844 2.710625 -33.283406 2.737969 C -33.381062 2.765313 -33.545125 2.796563 -33.646687 2.808281 C -33.74825 2.823906 -34.013875 2.835625 -34.013875 2.835625 " transform="matrix(1,0,0,-1,38.342,15.57)"/>
<path style="fill-rule:nonzero;fill:rgb(0%,100%,0%);fill-opacity:1;stroke-width:1.59404;stroke-linecap:butt;stroke-linejoin:miter;stroke:rgb(0%,100%,0%);stroke-opacity:1;stroke-miterlimit:10;" d="M -34.013875 2.835625 C -34.013875 2.835625 -34.283406 2.823906 -34.384969 2.808281 C -34.486531 2.796563 -34.650594 2.765313 -34.74825 2.737969 C -34.849812 2.710625 -35.006062 2.659844 -35.099812 2.616875 C -35.193562 2.577813 -35.345906 2.5075 -35.431844 2.456719 C -35.521687 2.402031 -35.658406 2.312188 -35.740437 2.249688 C -35.822469 2.187188 -35.947469 2.077813 -36.021687 2.003594 C -36.092 1.933281 -36.201375 1.808281 -36.263875 1.72625 C -36.326375 1.644219 -36.420125 1.5075 -36.470906 1.417656 C -36.521687 1.327813 -36.595906 1.179375 -36.634969 1.085625 C -36.674031 0.987969 -36.728719 0.831719 -36.752156 0.734063 C -36.7795 0.6325 -36.81075 0.472344 -36.826375 0.370781 C -36.838094 0.269219 -36.849812 0.10125 -36.849812 -0.0003125 C -36.849812 -0.101875 -36.838094 -0.269844 -36.826375 -0.371406 C -36.81075 -0.472969 -36.7795 -0.633125 -36.752156 -0.734687 C -36.728719 -0.832344 -36.674031 -0.988594 -36.634969 -1.08625 C -36.595906 -1.18 -36.521687 -1.328437 -36.470906 -1.418281 C -36.420125 -1.508125 -36.326375 -1.644844 -36.263875 -1.726875 C -36.201375 -1.805 -36.092 -1.93 -36.021687 -2.004219 C -35.947469 -2.078437 -35.822469 -2.187812 -35.740437 -2.250312 C -35.658406 -2.312812 -35.521687 -2.402656 -35.431844 -2.453437 C -35.345906 -2.508125 -35.193562 -2.578437 -35.099812 -2.6175 C -35.006062 -2.656562 -34.849812 -2.71125 -34.74825 -2.738594 C -34.650594 -2.765937 -34.486531 -2.797187 -34.384969 -2.808906 C -34.283406 -2.824531 -34.013875 -2.83625 -34.013875 -2.83625 " transform="matrix(1,0,0,-1,38.342,15.57)"/>
<path style="fill:none;stroke-width:0.79701;stroke-linecap:butt;stroke-linejoin:miter;stroke:rgb(0%,0%,0%);stroke-opacity:1;stroke-miterlimit:10;" d="M 34.017375 -2.83625 L 34.017375 2.835625 " transform="matrix(1,0,0,-1,38.342,15.57)"/>
<path style="fill-rule:nonzero;fill:rgb(100%,0%,0%);fill-opacity:1;stroke-width:1.59404;stroke-linecap:butt;stroke-linejoin:miter;stroke:rgb(100%,0%,0%);stroke-opacity:1;stroke-miterlimit:10;" d="M 34.017375 -2.83625 C 34.017375 -2.83625 34.283 -2.824531 34.384563 -2.808906 C 34.486125 -2.797187 34.650188 -2.765937 34.747844 -2.738594 C 34.849406 -2.71125 35.005656 -2.656562 35.099406 -2.6175 C 35.197063 -2.578437 35.3455 -2.508125 35.431438 -2.453437 C 35.521281 -2.402656 35.658 -2.312812 35.740031 -2.250312 C 35.822063 -2.187812 35.947063 -2.078437 36.021281 -2.004219 C 36.091594 -1.93 36.200969 -1.805 36.263469 -1.726875 C 36.325969 -1.644844 36.419719 -1.508125 36.4705 -1.418281 C 36.521281 -1.328437 36.5955 -1.18 36.634563 -1.08625 C 36.673625 -0.988594 36.728313 -0.832344 36.75175 -0.734687 C 36.779094 -0.633125 36.81425 -0.472969 36.825969 -0.371406 C 36.837688 -0.269844 36.849406 -0.101875 36.849406 -0.0003125 C 36.849406 0.10125 36.837688 0.269219 36.825969 0.370781 C 36.81425 0.472344 36.779094 0.6325 36.75175 0.734063 C 36.728313 0.831719 36.673625 0.987969 36.634563 1.085625 C 36.5955 1.179375 36.521281 1.327813 36.4705 1.417656 C 36.419719 1.5075 36.325969 1.644219 36.263469 1.72625 C 36.200969 1.808281 36.091594 1.933281 36.021281 2.003594 C 35.947063 2.077813 35.822063 2.187188 35.740031 2.249688 C 35.658 2.312188 35.521281 2.402031 35.431438 2.456719 C 35.3455 2.5075 35.197063 2.577813 35.099406 2.616875 C 35.005656 2.659844 34.849406 2.710625 34.747844 2.737969 C 34.650188 2.765313 34.486125 2.796563 34.384563 2.808281 C 34.283 2.823906 34.017375 2.835625 34.017375 2.835625 " transform="matrix(1,0,0,-1,38.342,15.57)"/>
<path style="fill-rule:nonzero;fill:rgb(0%,100%,0%);fill-opacity:1;stroke-width:1.59404;stroke-linecap:butt;stroke-linejoin:miter;stroke:rgb(0%,100%,0%);stroke-opacity:1;stroke-miterlimit:10;" d="M 34.017375 2.835625 C 34.017375 2.835625 33.747844 2.823906 33.646281 2.808281 C 33.544719 2.796563 33.380656 2.765313 33.283 2.737969 C 33.181438 2.710625 33.025188 2.659844 32.931438 2.616875 C 32.837688 2.577813 32.685344 2.5075 32.599406 2.456719 C 32.509563 2.402031 32.372844 2.312188 32.290813 2.249688 C 32.208781 2.187188 32.083781 2.077813 32.009563 2.003594 C 31.93925 1.933281 31.829875 1.808281 31.767375 1.72625 C 31.704875 1.644219 31.611125 1.5075 31.560344 1.417656 C 31.509563 1.327813 31.435344 1.179375 31.396281 1.085625 C 31.357219 0.987969 31.302531 0.831719 31.279094 0.734063 C 31.25175 0.6325 31.2205 0.472344 31.204875 0.370781 C 31.193156 0.269219 31.181438 0.10125 31.181438 -0.0003125 C 31.181438 -0.101875 31.193156 -0.269844 31.204875 -0.371406 C 31.2205 -0.472969 31.25175 -0.633125 31.279094 -0.734687 C 31.302531 -0.832344 31.357219 -0.988594 31.396281 -1.08625 C 31.435344 -1.18 31.509563 -1.328437 31.560344 -1.418281 C 31.611125 -1.508125 31.704875 -1.644844 31.767375 -1.726875 C 31.829875 -1.805 31.93925 -1.93 32.009563 -2.004219 C 32.083781 -2.078437 32.208781 -2.187812 32.290813 -2.250312 C 32.372844 -2.312812 32.509563 -2.402656 32.599406 -2.453437 C 32.685344 -2.508125 32.837688 -2.578437 32.931438 -2.6175 C 33.025188 -2.656562 33.181438 -2.71125 33.283 -2.738594 C 33.380656 -2.765937 33.544719 -2.797187 33.646281 -2.808906 C 33.747844 -2.824531 34.017375 -2.83625 34.017375 -2.83625 " transform="matrix(1,0,0,-1,38.342,15.57)"/>
<path style="fill:none;stroke-width:0.79701;stroke-linecap:butt;stroke-linejoin:miter;stroke:rgb(0%,0%,0%);stroke-opacity:1;stroke-miterlimit:10;" d="M -9.072469 14.175469 L -9.072469 8.503594 " transform="matrix(1,0,0,-1,38.342,15.57)"/>
<path style="fill-rule:nonzero;fill:rgb(0%,0%,100%);fill-opacity:1;stroke-width:1.59404;stroke-linecap:butt;stroke-linejoin:miter;stroke:rgb(0%,0%,100%);stroke-opacity:1;stroke-miterlimit:10;" d="M -9.072469 8.503594 C -9.072469 8.503594 -8.802937 8.515313 -8.701375 8.527031 C -8.599812 8.542656 -8.43575 8.573906 -8.338094 8.60125 C -8.236531 8.628594 -8.080281 8.679375 -7.986531 8.718438 C -7.892781 8.7575 -7.744344 8.831719 -7.6545 8.8825 C -7.564656 8.933281 -7.427937 9.027031 -7.345906 9.089531 C -7.263875 9.152031 -7.138875 9.261406 -7.064656 9.335625 C -6.994344 9.405938 -6.884969 9.530938 -6.822469 9.612969 C -6.759969 9.695 -6.666219 9.831719 -6.615437 9.921563 C -6.564656 10.011406 -6.490437 10.159844 -6.451375 10.253594 C -6.412312 10.347344 -6.357625 10.5075 -6.334187 10.605156 C -6.306844 10.702813 -6.275594 10.866875 -6.259969 10.968438 C -6.24825 11.07 -6.236531 11.234063 -6.236531 11.339531 C -6.236531 11.441094 -6.24825 11.605156 -6.259969 11.706719 C -6.275594 11.808281 -6.306844 11.972344 -6.334187 12.073906 C -6.357625 12.171563 -6.412312 12.327813 -6.451375 12.421563 C -6.490437 12.519219 -6.564656 12.667656 -6.615437 12.7575 C -6.666219 12.843438 -6.759969 12.984063 -6.822469 13.062188 C -6.884969 13.144219 -6.994344 13.269219 -7.064656 13.343438 C -7.138875 13.41375 -7.263875 13.523125 -7.345906 13.585625 C -7.427937 13.648125 -7.564656 13.741875 -7.6545 13.792656 C -7.744344 13.843438 -7.892781 13.917656 -7.986531 13.956719 C -8.080281 13.995781 -8.236531 14.050469 -8.338094 14.077813 C -8.43575 14.10125 -8.599812 14.136406 -8.701375 14.148125 C -8.802937 14.16375 -9.072469 14.171563 -9.072469 14.171563 " transform="matrix(1,0,0,-1,38.342,15.57)"/>
<path style="fill-rule:nonzero;fill:rgb(100%,94.898987%,0%);fill-opacity:1;stroke-width:1.59404;stroke-linecap:butt;stroke-linejoin:miter;stroke:rgb(100%,94.898987%,0%);stroke-opacity:1;stroke-miterlimit:10;" d="M -9.072469 14.171563 C -9.072469 14.171563 -9.338094 14.16375 -9.439656 14.148125 C -9.541219 14.136406 -9.705281 14.10125 -9.802937 14.077813 C -9.9045 14.050469 -10.06075 13.995781 -10.1545 13.956719 C -10.252156 13.917656 -10.400594 13.843438 -10.486531 13.792656 C -10.576375 13.741875 -10.713094 13.648125 -10.795125 13.585625 C -10.877156 13.523125 -11.002156 13.41375 -11.076375 13.343438 C -11.146687 13.269219 -11.256062 13.144219 -11.318562 13.062188 C -11.381062 12.984063 -11.474812 12.843438 -11.525594 12.7575 C -11.576375 12.667656 -11.650594 12.519219 -11.689656 12.421563 C -11.728719 12.327813 -11.783406 12.171563 -11.806844 12.073906 C -11.834187 11.972344 -11.869344 11.808281 -11.881062 11.706719 C -11.892781 11.605156 -11.9045 11.441094 -11.9045 11.339531 C -11.9045 11.234063 -11.892781 11.07 -11.881062 10.968438 C -11.869344 10.866875 -11.834187 10.702813 -11.806844 10.605156 C -11.783406 10.5075 -11.728719 10.347344 -11.689656 10.253594 C -11.650594 10.159844 -11.576375 10.011406 -11.525594 9.921563 C -11.474812 9.831719 -11.381062 9.695 -11.318562 9.612969 C -11.256062 9.530938 -11.146687 9.405938 -11.076375 9.335625 C -11.002156 9.261406 -10.877156 9.152031 -10.795125 9.089531 C -10.713094 9.027031 -10.576375 8.933281 -10.486531 8.8825 C -10.400594 8.831719 -10.252156 8.7575 -10.1545 8.718438 C -10.06075 8.679375 -9.9045 8.628594 -9.802937 8.60125 C -9.705281 8.573906 -9.541219 8.542656 -9.439656 8.527031 C -9.338094 8.515313 -9.072469 8.503594 -9.072469 8.503594 " transform="matrix(1,0,0,-1,38.342,15.57)"/>
<path style="fill:none;stroke-width:0.79701;stroke-linecap:butt;stroke-linejoin:miter;stroke:rgb(0%,0%,0%);stroke-opacity:1;stroke-miterlimit:10;" d="M 9.072063 14.175469 L 9.072063 8.503594 " transform="matrix(1,0,0,-1,38.342,15.57)"/>
<path style="fill-rule:nonzero;fill:rgb(50%,50%,50%);fill-opacity:1;stroke-width:1.59404;stroke-linecap:butt;stroke-linejoin:miter;stroke:rgb(50%,50%,50%);stroke-opacity:1;stroke-miterlimit:10;" d="M 9.072063 8.503594 C 9.072063 8.503594 9.337688 8.515313 9.43925 8.527031 C 9.540813 8.542656 9.704875 8.573906 9.802531 8.60125 C 9.904094 8.628594 10.060344 8.679375 10.154094 8.718438 C 10.25175 8.7575 10.400188 8.831719 10.490031 8.8825 C 10.575969 8.933281 10.716594 9.027031 10.794719 9.089531 C 10.87675 9.152031 11.00175 9.261406 11.075969 9.335625 C 11.146281 9.405938 11.255656 9.530938 11.318156 9.612969 C 11.380656 9.695 11.474406 9.831719 11.525188 9.921563 C 11.575969 10.011406 11.650188 10.159844 11.68925 10.253594 C 11.728313 10.347344 11.783 10.5075 11.810344 10.605156 C 11.833781 10.702813 11.868938 10.866875 11.880656 10.968438 C 11.896281 11.07 11.904094 11.234063 11.904094 11.339531 C 11.904094 11.441094 11.896281 11.605156 11.880656 11.706719 C 11.868938 11.808281 11.833781 11.972344 11.810344 12.073906 C 11.783 12.171563 11.728313 12.327813 11.68925 12.421563 C 11.650188 12.519219 11.575969 12.667656 11.525188 12.7575 C 11.474406 12.843438 11.380656 12.984063 11.318156 13.062188 C 11.255656 13.144219 11.146281 13.269219 11.075969 13.343438 C 11.00175 13.41375 10.87675 13.523125 10.794719 13.585625 C 10.716594 13.648125 10.575969 13.741875 10.490031 13.792656 C 10.400188 13.843438 10.25175 13.917656 10.154094 13.956719 C 10.060344 13.995781 9.904094 14.050469 9.802531 14.077813 C 9.704875 14.10125 9.540813 14.136406 9.43925 14.148125 C 9.337688 14.16375 9.072063 14.171563 9.072063 14.171563 " transform="matrix(1,0,0,-1,38.342,15.57)"/>
<path style="fill-rule:nonzero;fill:rgb(100%,50%,0%);fill-opacity:1;stroke-width:1.59404;stroke-linecap:butt;stroke-linejoin:miter;stroke:rgb(100%,50%,0%);stroke-opacity:1;stroke-miterlimit:10;" d="M 9.072063 14.171563 C 9.072063 14.171563 8.802531 14.16375 8.700969 14.148125 C 8.599406 14.136406 8.435344 14.10125 8.337688 14.077813 C 8.240031 14.050469 8.079875 13.995781 7.986125 13.956719 C 7.892375 13.917656 7.743938 13.843438 7.654094 13.792656 C 7.56425 13.741875 7.427531 13.648125 7.3455 13.585625 C 7.263469 13.523125 7.138469 13.41375 7.068156 13.343438 C 6.993938 13.269219 6.884563 13.144219 6.822063 13.062188 C 6.759563 12.984063 6.665813 12.843438 6.615031 12.7575 C 6.56425 12.667656 6.490031 12.519219 6.450969 12.421563 C 6.411906 12.327813 6.361125 12.171563 6.333781 12.073906 C 6.306438 11.972344 6.275188 11.808281 6.259563 11.706719 C 6.247844 11.605156 6.236125 11.441094 6.236125 11.339531 C 6.236125 11.234063 6.247844 11.07 6.259563 10.968438 C 6.275188 10.866875 6.306438 10.702813 6.333781 10.605156 C 6.361125 10.5075 6.411906 10.347344 6.450969 10.253594 C 6.490031 10.159844 6.56425 10.011406 6.615031 9.921563 C 6.665813 9.831719 6.759563 9.695 6.822063 9.612969 C 6.884563 9.530938 6.993938 9.405938 7.068156 9.335625 C 7.138469 9.261406 7.263469 9.152031 7.3455 9.089531 C 7.427531 9.027031 7.56425 8.933281 7.654094 8.8825 C 7.743938 8.831719 7.892375 8.7575 7.986125 8.718438 C 8.079875 8.679375 8.240031 8.628594 8.337688 8.60125 C 8.435344 8.573906 8.599406 8.542656 8.700969 8.527031 C 8.802531 8.515313 9.072063 8.503594 9.072063 8.503594 " transform="matrix(1,0,0,-1,38.342,15.57)"/>
<path style="fill:none;stroke-width:0.79701;stroke-linecap:butt;stroke-linejoin:miter;stroke:rgb(0%,0%,0%);stroke-opacity:1;stroke-miterlimit:10;" d="M -11.338094 -14.172187 L -11.338094 -8.504219 " transform="matrix(1,0,0,-1,38.342,15.57)"/>
<path style="fill-rule:nonzero;fill:rgb(100%,0%,0%);fill-opacity:1;stroke-width:1.59404;stroke-linecap:butt;stroke-linejoin:miter;stroke:rgb(100%,0%,0%);stroke-opacity:1;stroke-miterlimit:10;" d="M -11.338094 -14.172187 C -11.338094 -14.172187 -11.068562 -14.160469 -10.967 -14.14875 C -10.865437 -14.137031 -10.705281 -14.101875 -10.603719 -14.074531 C -10.506062 -14.051094 -10.349812 -13.996406 -10.252156 -13.957344 C -10.158406 -13.918281 -10.009969 -13.844062 -9.920125 -13.793281 C -9.834187 -13.7425 -9.693562 -13.64875 -9.611531 -13.58625 C -9.533406 -13.52375 -9.408406 -13.414375 -9.334187 -13.344062 C -9.259969 -13.269844 -9.150594 -13.144844 -9.088094 -13.062812 C -9.025594 -12.980781 -8.93575 -12.844062 -8.884969 -12.754219 C -8.834187 -12.668281 -8.759969 -12.519844 -8.720906 -12.422187 C -8.681844 -12.328437 -8.627156 -12.172187 -8.599812 -12.070625 C -8.572469 -11.972969 -8.541219 -11.808906 -8.5295 -11.707344 C -8.513875 -11.605781 -8.502156 -11.441719 -8.502156 -11.340156 C -8.502156 -11.234687 -8.513875 -11.070625 -8.5295 -10.969062 C -8.541219 -10.8675 -8.572469 -10.703437 -8.599812 -10.605781 C -8.627156 -10.504219 -8.681844 -10.347969 -8.720906 -10.254219 C -8.759969 -10.160469 -8.834187 -10.012031 -8.884969 -9.922187 C -8.93575 -9.832344 -9.025594 -9.695625 -9.088094 -9.613594 C -9.150594 -9.531562 -9.259969 -9.406562 -9.334187 -9.332344 C -9.408406 -9.262031 -9.533406 -9.152656 -9.611531 -9.090156 C -9.693562 -9.027656 -9.834187 -8.933906 -9.920125 -8.883125 C -10.009969 -8.832344 -10.158406 -8.758125 -10.252156 -8.719062 C -10.349812 -8.68 -10.506062 -8.625312 -10.603719 -8.601875 C -10.705281 -8.574531 -10.865437 -8.543281 -10.967 -8.527656 C -11.068562 -8.515937 -11.338094 -8.504219 -11.338094 -8.504219 " transform="matrix(1,0,0,-1,38.342,15.57)"/>
<path style="fill-rule:nonzero;fill:rgb(100%,75%,75%);fill-opacity:1;stroke-width:1.59404;stroke-linecap:butt;stroke-linejoin:miter;stroke:rgb(100%,75%,75%);stroke-opacity:1;stroke-miterlimit:10;" d="M -11.338094 -8.504219 C -11.338094 -8.504219 -11.607625 -8.515937 -11.709187 -8.527656 C -11.81075 -8.543281 -11.974812 -8.574531 -12.072469 -8.601875 C -12.170125 -8.625312 -12.326375 -8.68 -12.424031 -8.719062 C -12.517781 -8.758125 -12.666219 -8.832344 -12.756062 -8.883125 C -12.845906 -8.933906 -12.982625 -9.027656 -13.064656 -9.090156 C -13.146687 -9.152656 -13.271687 -9.262031 -13.342 -9.332344 C -13.416219 -9.406562 -13.525594 -9.531562 -13.588094 -9.613594 C -13.650594 -9.695625 -13.740437 -9.832344 -13.795125 -9.922187 C -13.845906 -10.012031 -13.916219 -10.160469 -13.959187 -10.254219 C -13.99825 -10.347969 -14.049031 -10.504219 -14.076375 -10.605781 C -14.103719 -10.703437 -14.134969 -10.8675 -14.150594 -10.969062 C -14.162312 -11.070625 -14.174031 -11.234687 -14.174031 -11.340156 C -14.174031 -11.441719 -14.162312 -11.605781 -14.150594 -11.707344 C -14.134969 -11.808906 -14.103719 -11.972969 -14.076375 -12.070625 C -14.049031 -12.172187 -13.99825 -12.328437 -13.959187 -12.422187 C -13.916219 -12.519844 -13.845906 -12.668281 -13.795125 -12.754219 C -13.740437 -12.844062 -13.650594 -12.980781 -13.588094 -13.062812 C -13.525594 -13.144844 -13.416219 -13.269844 -13.342 -13.344062 C -13.271687 -13.414375 -13.146687 -13.52375 -13.064656 -13.58625 C -12.982625 -13.64875 -12.845906 -13.7425 -12.756062 -13.793281 C -12.666219 -13.844062 -12.517781 -13.918281 -12.424031 -13.957344 C -12.326375 -13.996406 -12.170125 -14.051094 -12.072469 -14.074531 C -11.974812 -14.101875 -11.81075 -14.137031 -11.709187 -14.14875 C -11.607625 -14.160469 -11.338094 -14.172187 -11.338094 -14.172187 " transform="matrix(1,0,0,-1,38.342,15.57)"/>
<path style="fill:none;stroke-width:0.79701;stroke-linecap:butt;stroke-linejoin:miter;stroke:rgb(0%,0%,0%);stroke-opacity:1;stroke-miterlimit:10;" d="M 11.337688 -14.172187 L 11.337688 -8.504219 " transform="matrix(1,0,0,-1,38.342,15.57)"/>
<path style="fill-rule:nonzero;fill:rgb(100%,94.898987%,0%);fill-opacity:1;stroke-width:1.59404;stroke-linecap:butt;stroke-linejoin:miter;stroke:rgb(100%,94.898987%,0%);stroke-opacity:1;stroke-miterlimit:10;" d="M 11.337688 -14.172187 C 11.337688 -14.172187 11.607219 -14.160469 11.708781 -14.14875 C 11.810344 -14.137031 11.974406 -14.101875 12.072063 -14.074531 C 12.169719 -14.051094 12.329875 -13.996406 12.423625 -13.957344 C 12.517375 -13.918281 12.665813 -13.844062 12.755656 -13.793281 C 12.8455 -13.7425 12.982219 -13.64875 13.06425 -13.58625 C 13.146281 -13.52375 13.271281 -13.414375 13.341594 -13.344062 C 13.415813 -13.269844 13.525188 -13.144844 13.587688 -13.062812 C 13.650188 -12.980781 13.743938 -12.844062 13.794719 -12.754219 C 13.8455 -12.668281 13.919719 -12.519844 13.958781 -12.422187 C 13.997844 -12.328437 14.048625 -12.172187 14.075969 -12.070625 C 14.103313 -11.972969 14.134563 -11.808906 14.150188 -11.707344 C 14.161906 -11.605781 14.173625 -11.441719 14.173625 -11.340156 C 14.173625 -11.234687 14.161906 -11.070625 14.150188 -10.969062 C 14.134563 -10.8675 14.103313 -10.703437 14.075969 -10.605781 C 14.048625 -10.504219 13.997844 -10.347969 13.958781 -10.254219 C 13.919719 -10.160469 13.8455 -10.012031 13.794719 -9.922187 C 13.743938 -9.832344 13.650188 -9.695625 13.587688 -9.613594 C 13.525188 -9.531562 13.415813 -9.406562 13.341594 -9.332344 C 13.271281 -9.262031 13.146281 -9.152656 13.06425 -9.090156 C 12.982219 -9.027656 12.8455 -8.933906 12.755656 -8.883125 C 12.665813 -8.832344 12.517375 -8.758125 12.423625 -8.719062 C 12.329875 -8.68 12.169719 -8.625312 12.072063 -8.601875 C 11.974406 -8.574531 11.810344 -8.543281 11.708781 -8.527656 C 11.607219 -8.515937 11.337688 -8.504219 11.337688 -8.504219 " transform="matrix(1,0,0,-1,38.342,15.57)"/>
<path style="fill-rule:nonzero;fill:rgb(100%,75%,75%);fill-opacity:1;stroke-width:1.59404;stroke-linecap:butt;stroke-linejoin:miter;stroke:rgb(100%,75%,75%);stroke-opacity:1;stroke-miterlimit:10;" d="M 11.337688 -8.504219 C 11.337688 -8.504219 11.072063 -8.515937 10.9705 -8.527656 C 10.865031 -8.543281 10.704875 -8.574531 10.603313 -8.601875 C 10.505656 -8.625312 10.349406 -8.68 10.255656 -8.719062 C 10.158 -8.758125 10.009563 -8.832344 9.919719 -8.883125 C 9.833781 -8.933906 9.693156 -9.027656 9.611125 -9.090156 C 9.533 -9.152656 9.408 -9.262031 9.333781 -9.332344 C 9.263469 -9.406562 9.154094 -9.531562 9.091594 -9.613594 C 9.029094 -9.695625 8.935344 -9.832344 8.884563 -9.922187 C 8.833781 -10.012031 8.759563 -10.160469 8.7205 -10.254219 C 8.681438 -10.347969 8.62675 -10.504219 8.599406 -10.605781 C 8.575969 -10.703437 8.540813 -10.8675 8.529094 -10.969062 C 8.513469 -11.070625 8.505656 -11.234687 8.505656 -11.340156 C 8.505656 -11.441719 8.513469 -11.605781 8.529094 -11.707344 C 8.540813 -11.808906 8.575969 -11.972969 8.599406 -12.070625 C 8.62675 -12.172187 8.681438 -12.328437 8.7205 -12.422187 C 8.759563 -12.519844 8.833781 -12.668281 8.884563 -12.754219 C 8.935344 -12.844062 9.029094 -12.980781 9.091594 -13.062812 C 9.154094 -13.144844 9.263469 -13.269844 9.333781 -13.344062 C 9.408 -13.414375 9.533 -13.52375 9.611125 -13.58625 C 9.693156 -13.64875 9.833781 -13.7425 9.919719 -13.793281 C 10.009563 -13.844062 10.158 -13.918281 10.255656 -13.957344 C 10.349406 -13.996406 10.505656 -14.051094 10.603313 -14.074531 C 10.704875 -14.101875 10.865031 -14.137031 10.9705 -14.14875 C 11.072063 -14.160469 11.337688 -14.172187 11.337688 -14.172187 " transform="matrix(1,0,0,-1,38.342,15.57)"/>
</g>
</svg>
