<?xml version="1.0" encoding="UTF-8"?>
<svg xmlns="http://www.w3.org/2000/svg" xmlns:xlink="http://www.w3.org/1999/xlink" width="78pt" height="89pt" viewBox="0 0 78 89" version="1.1">
<g id="surface1">
<path style="fill:none;stroke-width:0.79701;stroke-linecap:butt;stroke-linejoin:miter;stroke:rgb(0%,0%,0%);stroke-opacity:1;stroke-miterlimit:10;" d="M 0.00115625 -68.034875 L -34.018375 0.00028125 " transform="matrix(1,0,0,-1,38.909,16.137)"/>
<path style="fill:none;stroke-width:0.79701;stroke-linecap:butt;stroke-linejoin:miter;stroke:rgb(0%,0%,0%);stroke-opacity:1;stroke-miterlimit:10;" d="M 0.00115625 -68.034875 L 34.016781 0.00028125 " transform="matrix(1,0,0,-1,38.909,16.137)"/>
<path style="fill:none;stroke-width:0.79701;stroke-linecap:butt;stroke-linejoin:miter;stroke:rgb(0%,0%,0%);stroke-opacity:1;stroke-miterlimit:10;" d="M 0.00115625 -68.034875 L -11.338688 -11.339562 " transform="matrix(1,0,0,-1,38.909,16.137)"/>
<path style="fill:none;stroke-width:0.79701;stroke-linecap:butt;stroke-linejoin:miter;stroke:rgb(0%,0%,0%);stroke-opacity:1;stroke-miterlimit:10;" d="M 0.00115625 -68.034875 L 11.337094 -11.339562 " transform="matrix(1,0,0,-1,38.909,16.137)"/>
<path style="fill:none;stroke-width:0.79701;stroke-linecap:butt;stroke-linejoin:miter;stroke:rgb(0%,0%,0%);stroke-opacity:1;stroke-miterlimit:10;" d="M -11.338688 -11.339562 L -34.018375 0.00028125 L -9.073063 11.340125 L -11.338688 -11.339562 " transform="matrix(1,0,0,-1,38.909,16.137)"/>
<path style="fill:none;stroke-width:0.79701;stroke-linecap:butt;stroke-linejoin:miter;stroke:rgb(0%,0%,0%);stroke-opacity:1;stroke-miterlimit:10;" d="M -9.073063 11.340125 L 9.071469 11.340125 L 34.016781 0.00028125 L 11.337094 -11.339562 L 9.071469 11.340125 " transform="matrix(1,0,0,-1,38.909,16.137)"/>
<path style="fill:none;stroke-width:0.79701;stroke-linecap:butt;stroke-linejoin:miter;stroke:rgb(0%,0%,0%);stroke-opacity:1;stroke-miterlimit:10;" d="M 0.00115625 -70.866906 L 0.00115625 -65.198937 " transform="matrix(1,0,0,-1,38.909,16.137)"/>
<path style="fill-rule:nonzero;fill:rgb(100%,0%,0%);fill-opacity:1;stroke-width:1.59404;stroke-linecap:butt;stroke-linejoin:miter;stroke:rgb(100%,0%,0%);stroke-opacity:1;stroke-miterlimit:10;" d="M 2.946469 -69.730187 C 2.946469 -69.730187 3.048031 -69.542687 3.083187 -69.468469 C 3.118344 -69.39425 3.169125 -69.273156 3.196469 -69.195031 C 3.223812 -69.116906 3.262875 -68.991906 3.286312 -68.909875 C 3.305844 -68.83175 3.337094 -68.702844 3.348812 -68.620812 C 3.364437 -68.542687 3.380062 -68.409875 3.387875 -68.327844 C 3.395687 -68.245812 3.4035 -68.113 3.4035 -68.030969 C 3.4035 -67.948937 3.395687 -67.816125 3.387875 -67.734094 C 3.380062 -67.652062 3.364437 -67.523156 3.348812 -67.441125 C 3.337094 -67.359094 3.305844 -67.230187 3.286312 -67.152062 C 3.262875 -67.070031 3.223812 -66.945031 3.196469 -66.866906 C 3.169125 -66.788781 3.118344 -66.667687 3.083187 -66.593469 C 3.048031 -66.51925 2.985531 -66.402062 2.946469 -66.33175 C 2.9035 -66.257531 2.833187 -66.148156 2.786312 -66.08175 C 2.739437 -66.011437 2.657406 -65.909875 2.606625 -65.843469 C 2.551937 -65.780969 2.462094 -65.683312 2.4035 -65.624719 C 2.348812 -65.566125 2.251156 -65.480187 2.18475 -65.4255 C 2.12225 -65.370812 2.016781 -65.292687 1.950375 -65.245812 C 1.883969 -65.198937 1.770687 -65.128625 1.700375 -65.085656 C 1.630062 -65.042687 1.512875 -64.984094 1.438656 -64.948937 C 1.364437 -64.913781 1.239437 -64.863 1.165219 -64.835656 C 1.087094 -64.808312 0.958187 -64.765344 0.880062 -64.745812 C 0.801937 -64.722375 0.673031 -64.695031 0.591 -64.683312 C 0.508969 -64.667687 0.380062 -64.648156 0.298031 -64.64425 C 0.216 -64.636437 0.00115625 -64.628625 0.00115625 -64.628625 " transform="matrix(1,0,0,-1,38.909,16.137)"/>
<path style="fill-rule:nonzero;fill:rgb(100%,75%,75%);fill-opacity:1;stroke-width:1.59404;stroke-linecap:butt;stroke-linejoin:miter;stroke:rgb(100%,75%,75%);stroke-opacity:1;stroke-miterlimit:10;" d="M 0.00115625 -64.628625 C 0.00115625 -64.628625 -0.213688 -64.636437 -0.295719 -64.64425 C -0.37775 -64.648156 -0.510563 -64.667687 -0.592594 -64.683312 C -0.670719 -64.695031 -0.799625 -64.722375 -0.881656 -64.745812 C -0.959781 -64.765344 -1.084781 -64.808312 -1.162906 -64.835656 C -1.241031 -64.863 -1.362125 -64.913781 -1.436344 -64.948937 C -1.510563 -64.984094 -1.62775 -65.042687 -1.701969 -65.085656 C -1.772281 -65.128625 -1.885563 -65.198937 -1.951969 -65.245812 C -2.018375 -65.292687 -2.123844 -65.370812 -2.186344 -65.4255 C -2.248844 -65.480187 -2.3465 -65.566125 -2.405094 -65.624719 C -2.463688 -65.683312 -2.553531 -65.780969 -2.604313 -65.843469 C -2.659 -65.909875 -2.741031 -66.011437 -2.787906 -66.08175 C -2.834781 -66.148156 -2.905094 -66.257531 -2.944156 -66.33175 C -2.987125 -66.402062 -3.049625 -66.51925 -3.080875 -66.593469 C -3.116031 -66.667687 -3.166813 -66.788781 -3.198063 -66.866906 C -3.225406 -66.945031 -3.264469 -67.070031 -3.284 -67.152062 C -3.307438 -67.230187 -3.334781 -67.359094 -3.350406 -67.441125 C -3.366031 -67.523156 -3.381656 -67.652062 -3.389469 -67.734094 C -3.397281 -67.816125 -3.401188 -67.948937 -3.401188 -68.030969 C -3.401188 -68.113 -3.397281 -68.245812 -3.389469 -68.327844 C -3.381656 -68.409875 -3.366031 -68.542687 -3.350406 -68.620812 C -3.334781 -68.702844 -3.307438 -68.83175 -3.284 -68.909875 C -3.264469 -68.991906 -3.225406 -69.116906 -3.198063 -69.195031 C -3.166813 -69.273156 -3.116031 -69.39425 -3.080875 -69.468469 C -3.049625 -69.542687 -2.944156 -69.730187 -2.944156 -69.730187 " transform="matrix(1,0,0,-1,38.909,16.137)"/>
<path style="fill-rule:nonzero;fill:rgb(0%,0%,0%);fill-opacity:1;stroke-width:1.59404;stroke-linecap:butt;stroke-linejoin:miter;stroke:rgb(0%,0%,0%);stroke-opacity:1;stroke-miterlimit:10;" d="M -2.944156 -69.730187 C -2.944156 -69.730187 -2.834781 -69.913781 -2.787906 -69.984094 C -2.741031 -70.0505 -2.659 -70.155969 -2.604313 -70.218469 C -2.553531 -70.280969 -2.463688 -70.378625 -2.405094 -70.437219 C -2.3465 -70.495812 -2.248844 -70.585656 -2.186344 -70.636437 C -2.123844 -70.691125 -2.018375 -70.76925 -1.951969 -70.816125 C -1.885563 -70.863 -1.772281 -70.937219 -1.701969 -70.976281 C -1.62775 -71.01925 -1.510563 -71.077844 -1.436344 -71.113 C -1.362125 -71.148156 -1.241031 -71.198937 -1.162906 -71.226281 C -1.084781 -71.257531 -0.959781 -71.296594 -0.881656 -71.316125 C -0.799625 -71.339562 -0.670719 -71.366906 -0.592594 -71.382531 C -0.510563 -71.39425 -0.37775 -71.413781 -0.295719 -71.421594 C -0.213688 -71.4255 -0.080875 -71.433312 0.00115625 -71.433312 C 0.0831875 -71.433312 0.216 -71.4255 0.298031 -71.421594 C 0.380062 -71.413781 0.508969 -71.39425 0.591 -71.382531 C 0.673031 -71.366906 0.801937 -71.339562 0.880062 -71.316125 C 0.958187 -71.296594 1.087094 -71.257531 1.165219 -71.226281 C 1.239437 -71.198937 1.364437 -71.148156 1.438656 -71.113 C 1.512875 -71.077844 1.630062 -71.01925 1.700375 -70.976281 C 1.770687 -70.937219 1.883969 -70.863 1.950375 -70.816125 C 2.016781 -70.76925 2.12225 -70.691125 2.18475 -70.636437 C 2.251156 -70.585656 2.348812 -70.495812 2.4035 -70.437219 C 2.462094 -70.378625 2.551937 -70.280969 2.606625 -70.218469 C 2.657406 -70.155969 2.739437 -70.0505 2.786312 -69.984094 C 2.833187 -69.913781 2.946469 -69.730187 2.946469 -69.730187 " transform="matrix(1,0,0,-1,38.909,16.137)"/>
<path style="fill:none;stroke-width:0.79701;stroke-linecap:butt;stroke-linejoin:miter;stroke:rgb(0%,0%,0%);stroke-opacity:1;stroke-miterlimit:10;" d="M -34.018375 -2.835656 L -34.018375 2.836219 " transform="matrix(1,0,0,-1,38.909,16.137)"/>
<path style="fill-rule:nonzero;fill:rgb(50%,0%,50%);fill-opacity:1;stroke-width:1.59404;stroke-linecap:butt;stroke-linejoin:miter;stroke:rgb(50%,0%,50%);stroke-opacity:1;stroke-miterlimit:10;" d="M -31.069156 -1.698937 C -31.069156 -1.698937 -30.967594 -1.511437 -30.932438 -1.437219 C -30.897281 -1.363 -30.8465 -1.241906 -30.819156 -1.163781 C -30.791813 -1.085656 -30.75275 -0.960656 -30.729313 -0.878625 C -30.709781 -0.8005 -30.678531 -0.671594 -30.666813 -0.589562 C -30.651188 -0.511437 -30.635563 -0.378625 -30.62775 -0.296594 C -30.619938 -0.214562 -30.612125 -0.08175 -30.612125 0.00028125 C -30.612125 0.0823125 -30.619938 0.215125 -30.62775 0.297156 C -30.635563 0.379188 -30.651188 0.508094 -30.666813 0.590125 C -30.678531 0.672156 -30.709781 0.801063 -30.729313 0.879188 C -30.75275 0.961219 -30.791813 1.086219 -30.819156 1.164344 C -30.8465 1.242469 -30.897281 1.363563 -30.932438 1.437781 C -30.967594 1.512 -31.030094 1.629188 -31.069156 1.6995 C -31.112125 1.773719 -31.182438 1.883094 -31.229313 1.9495 C -31.276188 2.019813 -31.358219 2.121375 -31.409 2.187781 C -31.463688 2.250281 -31.553531 2.347938 -31.612125 2.406531 C -31.666813 2.465125 -31.764469 2.551063 -31.830875 2.60575 C -31.893375 2.660438 -31.998844 2.738563 -32.06525 2.785438 C -32.131656 2.832313 -32.244938 2.902625 -32.31525 2.945594 C -32.385563 2.988563 -32.50275 3.047156 -32.576969 3.082313 C -32.651188 3.117469 -32.776188 3.16825 -32.850406 3.195594 C -32.928531 3.222938 -33.057438 3.265906 -33.135563 3.285438 C -33.213688 3.308875 -33.342594 3.336219 -33.424625 3.347938 C -33.506656 3.363563 -33.635563 3.383094 -33.717594 3.387 C -33.799625 3.394813 -34.014469 3.402625 -34.014469 3.402625 " transform="matrix(1,0,0,-1,38.909,16.137)"/>
<path style="fill-rule:nonzero;fill:rgb(0%,0%,100%);fill-opacity:1;stroke-width:1.59404;stroke-linecap:butt;stroke-linejoin:miter;stroke:rgb(0%,0%,100%);stroke-opacity:1;stroke-miterlimit:10;" d="M -34.014469 3.402625 C -34.014469 3.402625 -34.229313 3.394813 -34.311344 3.387 C -34.393375 3.383094 -34.526188 3.363563 -34.608219 3.347938 C -34.686344 3.336219 -34.81525 3.308875 -34.897281 3.285438 C -34.975406 3.265906 -35.100406 3.222938 -35.178531 3.195594 C -35.256656 3.16825 -35.37775 3.117469 -35.451969 3.082313 C -35.526188 3.047156 -35.643375 2.988563 -35.717594 2.945594 C -35.787906 2.902625 -35.901188 2.832313 -35.967594 2.785438 C -36.034 2.738563 -36.139469 2.660438 -36.201969 2.60575 C -36.264469 2.551063 -36.362125 2.465125 -36.420719 2.406531 C -36.479313 2.347938 -36.569156 2.250281 -36.619938 2.187781 C -36.674625 2.121375 -36.756656 2.019813 -36.803531 1.9495 C -36.850406 1.883094 -36.920719 1.773719 -36.959781 1.6995 C -37.00275 1.629188 -37.06525 1.512 -37.0965 1.437781 C -37.131656 1.363563 -37.182438 1.242469 -37.213688 1.164344 C -37.241031 1.086219 -37.280094 0.961219 -37.299625 0.879188 C -37.323063 0.801063 -37.350406 0.672156 -37.366031 0.590125 C -37.381656 0.508094 -37.397281 0.379188 -37.405094 0.297156 C -37.412906 0.215125 -37.416813 0.0823125 -37.416813 0.00028125 C -37.416813 -0.08175 -37.412906 -0.214562 -37.405094 -0.296594 C -37.397281 -0.378625 -37.381656 -0.511437 -37.366031 -0.589562 C -37.350406 -0.671594 -37.323063 -0.8005 -37.299625 -0.878625 C -37.280094 -0.960656 -37.241031 -1.085656 -37.213688 -1.163781 C -37.182438 -1.241906 -37.131656 -1.363 -37.0965 -1.437219 C -37.06525 -1.511437 -36.959781 -1.698937 -36.959781 -1.698937 " transform="matrix(1,0,0,-1,38.909,16.137)"/>
<path style="fill-rule:nonzero;fill:rgb(0%,50%,50%);fill-opacity:1;stroke-width:1.59404;stroke-linecap:butt;stroke-linejoin:miter;stroke:rgb(0%,50%,50%);stroke-opacity:1;stroke-miterlimit:10;" d="M -36.959781 -1.698937 C -36.959781 -1.698937 -36.850406 -1.882531 -36.803531 -1.952844 C -36.756656 -2.01925 -36.674625 -2.124719 -36.619938 -2.187219 C -36.569156 -2.249719 -36.479313 -2.347375 -36.420719 -2.405969 C -36.362125 -2.464562 -36.264469 -2.554406 -36.201969 -2.605187 C -36.139469 -2.659875 -36.034 -2.738 -35.967594 -2.784875 C -35.901188 -2.83175 -35.787906 -2.905969 -35.717594 -2.945031 C -35.643375 -2.988 -35.526188 -3.046594 -35.451969 -3.08175 C -35.37775 -3.116906 -35.256656 -3.167687 -35.178531 -3.195031 C -35.100406 -3.226281 -34.975406 -3.265344 -34.897281 -3.284875 C -34.81525 -3.308312 -34.686344 -3.335656 -34.608219 -3.351281 C -34.526188 -3.363 -34.393375 -3.382531 -34.311344 -3.390344 C -34.229313 -3.39425 -34.0965 -3.402062 -34.014469 -3.402062 C -33.932438 -3.402062 -33.799625 -3.39425 -33.717594 -3.390344 C -33.635563 -3.382531 -33.506656 -3.363 -33.424625 -3.351281 C -33.342594 -3.335656 -33.213688 -3.308312 -33.135563 -3.284875 C -33.057438 -3.265344 -32.928531 -3.226281 -32.850406 -3.195031 C -32.776188 -3.167687 -32.651188 -3.116906 -32.576969 -3.08175 C -32.50275 -3.046594 -32.385563 -2.988 -32.31525 -2.945031 C -32.244938 -2.905969 -32.131656 -2.83175 -32.06525 -2.784875 C -31.998844 -2.738 -31.893375 -2.659875 -31.830875 -2.605187 C -31.764469 -2.554406 -31.666813 -2.464562 -31.612125 -2.405969 C -31.553531 -2.347375 -31.463688 -2.249719 -31.409 -2.187219 C -31.358219 -2.124719 -31.276188 -2.01925 -31.229313 -1.952844 C -31.182438 -1.882531 -31.069156 -1.698937 -31.069156 -1.698937 " transform="matrix(1,0,0,-1,38.909,16.137)"/>
<path style="fill:none;stroke-width:0.79701;stroke-linecap:butt;stroke-linejoin:miter;stroke:rgb(0%,0%,0%);stroke-opacity:1;stroke-miterlimit:10;" d="M 34.016781 -2.835656 L 34.016781 2.836219 " transform="matrix(1,0,0,-1,38.909,16.137)"/>
<path style="fill-rule:nonzero;fill:rgb(75%,50%,25%);fill-opacity:1;stroke-width:1.59404;stroke-linecap:butt;stroke-linejoin:miter;stroke:rgb(75%,50%,25%);stroke-opacity:1;stroke-miterlimit:10;" d="M 36.962094 -1.698937 C 36.962094 -1.698937 37.063656 -1.511437 37.098812 -1.437219 C 37.133969 -1.363 37.18475 -1.241906 37.212094 -1.163781 C 37.239437 -1.085656 37.2785 -0.960656 37.301937 -0.878625 C 37.321469 -0.8005 37.352719 -0.671594 37.364437 -0.589562 C 37.380062 -0.511437 37.395687 -0.378625 37.4035 -0.296594 C 37.411312 -0.214562 37.419125 -0.08175 37.419125 0.00028125 C 37.419125 0.0823125 37.411312 0.215125 37.4035 0.297156 C 37.395687 0.379188 37.380062 0.508094 37.364437 0.590125 C 37.352719 0.672156 37.321469 0.801063 37.301937 0.879188 C 37.2785 0.961219 37.239437 1.086219 37.212094 1.164344 C 37.18475 1.242469 37.133969 1.363563 37.098812 1.437781 C 37.063656 1.512 37.001156 1.629188 36.962094 1.6995 C 36.919125 1.773719 36.848812 1.883094 36.801937 1.9495 C 36.755062 2.019813 36.673031 2.121375 36.62225 2.187781 C 36.567562 2.250281 36.477719 2.347938 36.419125 2.406531 C 36.364437 2.465125 36.266781 2.551063 36.200375 2.60575 C 36.137875 2.660438 36.032406 2.738563 35.966 2.785438 C 35.899594 2.832313 35.786312 2.902625 35.716 2.945594 C 35.645687 2.988563 35.5285 3.047156 35.454281 3.082313 C 35.380062 3.117469 35.255062 3.16825 35.180844 3.195594 C 35.102719 3.222938 34.973812 3.265906 34.895687 3.285438 C 34.817562 3.308875 34.688656 3.336219 34.606625 3.347938 C 34.524594 3.363563 34.395687 3.383094 34.313656 3.387 C 34.231625 3.394813 34.016781 3.402625 34.016781 3.402625 " transform="matrix(1,0,0,-1,38.909,16.137)"/>
<path style="fill-rule:nonzero;fill:rgb(100%,94.898987%,0%);fill-opacity:1;stroke-width:1.59404;stroke-linecap:butt;stroke-linejoin:miter;stroke:rgb(100%,94.898987%,0%);stroke-opacity:1;stroke-miterlimit:10;" d="M 34.016781 3.402625 C 34.016781 3.402625 33.801937 3.394813 33.719906 3.387 C 33.637875 3.383094 33.505062 3.363563 33.423031 3.347938 C 33.344906 3.336219 33.216 3.308875 33.133969 3.285438 C 33.055844 3.265906 32.930844 3.222938 32.852719 3.195594 C 32.774594 3.16825 32.6535 3.117469 32.579281 3.082313 C 32.505062 3.047156 32.387875 2.988563 32.313656 2.945594 C 32.243344 2.902625 32.130062 2.832313 32.063656 2.785438 C 31.99725 2.738563 31.891781 2.660438 31.829281 2.60575 C 31.766781 2.551063 31.669125 2.465125 31.610531 2.406531 C 31.551937 2.347938 31.462094 2.250281 31.411312 2.187781 C 31.356625 2.121375 31.274594 2.019813 31.227719 1.9495 C 31.180844 1.883094 31.110531 1.773719 31.071469 1.6995 C 31.0285 1.629188 30.966 1.512 30.93475 1.437781 C 30.899594 1.363563 30.848812 1.242469 30.817562 1.164344 C 30.790219 1.086219 30.751156 0.961219 30.731625 0.879188 C 30.708187 0.801063 30.680844 0.672156 30.665219 0.590125 C 30.649594 0.508094 30.633969 0.379188 30.626156 0.297156 C 30.618344 0.215125 30.614437 0.0823125 30.614437 0.00028125 C 30.614437 -0.08175 30.618344 -0.214562 30.626156 -0.296594 C 30.633969 -0.378625 30.649594 -0.511437 30.665219 -0.589562 C 30.680844 -0.671594 30.708187 -0.8005 30.731625 -0.878625 C 30.751156 -0.960656 30.790219 -1.085656 30.817562 -1.163781 C 30.848812 -1.241906 30.899594 -1.363 30.93475 -1.437219 C 30.966 -1.511437 31.071469 -1.698937 31.071469 -1.698937 " transform="matrix(1,0,0,-1,38.909,16.137)"/>
<path style="fill-rule:nonzero;fill:rgb(75%,100%,0%);fill-opacity:1;stroke-width:1.59404;stroke-linecap:butt;stroke-linejoin:miter;stroke:rgb(75%,100%,0%);stroke-opacity:1;stroke-miterlimit:10;" d="M 31.071469 -1.698937 C 31.071469 -1.698937 31.180844 -1.882531 31.227719 -1.952844 C 31.274594 -2.01925 31.356625 -2.124719 31.411312 -2.187219 C 31.462094 -2.249719 31.551937 -2.347375 31.610531 -2.405969 C 31.669125 -2.464562 31.766781 -2.554406 31.829281 -2.605187 C 31.891781 -2.659875 31.99725 -2.738 32.063656 -2.784875 C 32.130062 -2.83175 32.243344 -2.905969 32.313656 -2.945031 C 32.387875 -2.988 32.505062 -3.046594 32.579281 -3.08175 C 32.6535 -3.116906 32.774594 -3.167687 32.852719 -3.195031 C 32.930844 -3.226281 33.055844 -3.265344 33.133969 -3.284875 C 33.216 -3.308312 33.344906 -3.335656 33.423031 -3.351281 C 33.505062 -3.363 33.637875 -3.382531 33.719906 -3.390344 C 33.801937 -3.39425 33.93475 -3.402062 34.016781 -3.402062 C 34.098812 -3.402062 34.231625 -3.39425 34.313656 -3.390344 C 34.395687 -3.382531 34.524594 -3.363 34.606625 -3.351281 C 34.688656 -3.335656 34.817562 -3.308312 34.895687 -3.284875 C 34.973812 -3.265344 35.102719 -3.226281 35.180844 -3.195031 C 35.255062 -3.167687 35.380062 -3.116906 35.454281 -3.08175 C 35.5285 -3.046594 35.645687 -2.988 35.716 -2.945031 C 35.786312 -2.905969 35.899594 -2.83175 35.966 -2.784875 C 36.032406 -2.738 36.137875 -2.659875 36.200375 -2.605187 C 36.266781 -2.554406 36.364437 -2.464562 36.419125 -2.405969 C 36.477719 -2.347375 36.567562 -2.249719 36.62225 -2.187219 C 36.673031 -2.124719 36.755062 -2.01925 36.801937 -1.952844 C 36.848812 -1.882531 36.962094 -1.698937 36.962094 -1.698937 " transform="matrix(1,0,0,-1,38.909,16.137)"/>
<path style="fill:none;stroke-width:0.79701;stroke-linecap:butt;stroke-linejoin:miter;stroke:rgb(0%,0%,0%);stroke-opacity:1;stroke-miterlimit:10;" d="M -9.073063 14.172156 L -9.073063 8.504188 " transform="matrix(1,0,0,-1,38.909,16.137)"/>
<path style="fill-rule:nonzero;fill:rgb(100%,0%,0%);fill-opacity:1;stroke-width:1.59404;stroke-linecap:butt;stroke-linejoin:miter;stroke:rgb(100%,0%,0%);stroke-opacity:1;stroke-miterlimit:10;" d="M -6.123844 9.637 C -6.123844 9.637 -6.022281 9.8245 -5.987125 9.902625 C -5.951969 9.976844 -5.901188 10.097938 -5.873844 10.176063 C -5.8465 10.254188 -5.807438 10.379188 -5.784 10.457313 C -5.764469 10.539344 -5.737125 10.66825 -5.7215 10.746375 C -5.705875 10.828406 -5.69025 10.961219 -5.682438 11.04325 C -5.674625 11.125281 -5.670719 11.258094 -5.670719 11.340125 C -5.670719 11.422156 -5.674625 11.551063 -5.682438 11.633094 C -5.69025 11.715125 -5.705875 11.847938 -5.7215 11.929969 C -5.737125 12.012 -5.764469 12.140906 -5.784 12.219031 C -5.807438 12.297156 -5.8465 12.426063 -5.873844 12.500281 C -5.901188 12.578406 -5.951969 12.703406 -5.987125 12.777625 C -6.022281 12.851844 -6.084781 12.969031 -6.123844 13.039344 C -6.166813 13.109656 -6.237125 13.222938 -6.284 13.289344 C -6.330875 13.35575 -6.412906 13.461219 -6.463688 13.523719 C -6.518375 13.586219 -6.608219 13.683875 -6.666813 13.742469 C -6.725406 13.801063 -6.823063 13.890906 -6.885563 13.945594 C -6.948063 13.996375 -7.053531 14.078406 -7.119938 14.125281 C -7.186344 14.172156 -7.299625 14.242469 -7.369938 14.285438 C -7.44025 14.3245 -7.557438 14.387 -7.631656 14.422156 C -7.709781 14.457313 -7.830875 14.508094 -7.909 14.535438 C -7.983219 14.562781 -8.112125 14.601844 -8.19025 14.625281 C -8.268375 14.644813 -8.397281 14.676063 -8.479313 14.687781 C -8.561344 14.703406 -8.694156 14.719031 -8.776188 14.726844 C -8.858219 14.734656 -9.069156 14.738563 -9.069156 14.738563 " transform="matrix(1,0,0,-1,38.909,16.137)"/>
<path style="fill-rule:nonzero;fill:rgb(100%,94.898987%,0%);fill-opacity:1;stroke-width:1.59404;stroke-linecap:butt;stroke-linejoin:miter;stroke:rgb(100%,94.898987%,0%);stroke-opacity:1;stroke-miterlimit:10;" d="M -9.069156 14.738563 C -9.069156 14.738563 -9.284 14.734656 -9.366031 14.726844 C -9.448063 14.719031 -9.580875 14.703406 -9.662906 14.687781 C -9.741031 14.676063 -9.869938 14.644813 -9.951969 14.625281 C -10.030094 14.601844 -10.155094 14.562781 -10.233219 14.535438 C -10.311344 14.508094 -10.432438 14.457313 -10.506656 14.422156 C -10.584781 14.387 -10.701969 14.3245 -10.772281 14.285438 C -10.842594 14.242469 -10.955875 14.172156 -11.022281 14.125281 C -11.088688 14.078406 -11.194156 13.996375 -11.256656 13.945594 C -11.319156 13.890906 -11.416813 13.801063 -11.475406 13.742469 C -11.534 13.683875 -11.623844 13.586219 -11.678531 13.523719 C -11.729313 13.461219 -11.811344 13.35575 -11.858219 13.289344 C -11.905094 13.222938 -11.975406 13.109656 -12.018375 13.039344 C -12.057438 12.969031 -12.119938 12.851844 -12.155094 12.777625 C -12.19025 12.703406 -12.241031 12.578406 -12.268375 12.500281 C -12.295719 12.426063 -12.334781 12.297156 -12.358219 12.219031 C -12.37775 12.140906 -12.405094 12.012 -12.420719 11.929969 C -12.436344 11.847938 -12.451969 11.715125 -12.459781 11.633094 C -12.467594 11.551063 -12.4715 11.422156 -12.4715 11.340125 C -12.4715 11.258094 -12.467594 11.125281 -12.459781 11.04325 C -12.451969 10.961219 -12.436344 10.828406 -12.420719 10.746375 C -12.405094 10.66825 -12.37775 10.539344 -12.358219 10.457313 C -12.334781 10.379188 -12.295719 10.254188 -12.268375 10.176063 C -12.241031 10.097938 -12.19025 9.976844 -12.155094 9.902625 C -12.119938 9.8245 -12.018375 9.637 -12.018375 9.637 " transform="matrix(1,0,0,-1,38.909,16.137)"/>
<path style="fill-rule:nonzero;fill:rgb(100%,75%,75%);fill-opacity:1;stroke-width:1.59404;stroke-linecap:butt;stroke-linejoin:miter;stroke:rgb(100%,75%,75%);stroke-opacity:1;stroke-miterlimit:10;" d="M -12.018375 9.637 C -12.018375 9.637 -11.905094 9.453406 -11.858219 9.387 C -11.811344 9.320594 -11.729313 9.215125 -11.678531 9.152625 C -11.623844 9.090125 -11.534 8.992469 -11.475406 8.933875 C -11.416813 8.875281 -11.319156 8.785438 -11.256656 8.734656 C -11.194156 8.679969 -11.088688 8.597938 -11.022281 8.551063 C -10.955875 8.504188 -10.842594 8.433875 -10.772281 8.390906 C -10.701969 8.351844 -10.584781 8.289344 -10.506656 8.254188 C -10.432438 8.222938 -10.311344 8.172156 -10.233219 8.140906 C -10.155094 8.113563 -10.030094 8.0745 -9.951969 8.051063 C -9.869938 8.031531 -9.741031 8.004188 -9.662906 7.988563 C -9.580875 7.972938 -9.448063 7.957313 -9.366031 7.9495 C -9.284 7.941688 -9.151188 7.937781 -9.069156 7.937781 C -8.987125 7.937781 -8.858219 7.941688 -8.776188 7.9495 C -8.694156 7.957313 -8.561344 7.972938 -8.479313 7.988563 C -8.397281 8.004188 -8.268375 8.031531 -8.19025 8.051063 C -8.112125 8.0745 -7.983219 8.113563 -7.909 8.140906 C -7.830875 8.172156 -7.709781 8.222938 -7.631656 8.254188 C -7.557438 8.289344 -7.44025 8.351844 -7.369938 8.390906 C -7.299625 8.433875 -7.186344 8.504188 -7.119938 8.551063 C -7.053531 8.597938 -6.948063 8.679969 -6.885563 8.734656 C -6.823063 8.785438 -6.725406 8.875281 -6.666813 8.933875 C -6.608219 8.992469 -6.518375 9.090125 -6.463688 9.152625 C -6.412906 9.215125 -6.330875 9.320594 -6.284 9.387 C -6.237125 9.453406 -6.123844 9.637 -6.123844 9.637 " transform="matrix(1,0,0,-1,38.909,16.137)"/>
<path style="fill:none;stroke-width:0.79701;stroke-linecap:butt;stroke-linejoin:miter;stroke:rgb(0%,0%,0%);stroke-opacity:1;stroke-miterlimit:10;" d="M 9.071469 14.172156 L 9.071469 8.504188 " transform="matrix(1,0,0,-1,38.909,16.137)"/>
<path style="fill-rule:nonzero;fill:rgb(0%,0%,0%);fill-opacity:1;stroke-width:1.59404;stroke-linecap:butt;stroke-linejoin:miter;stroke:rgb(0%,0%,0%);stroke-opacity:1;stroke-miterlimit:10;" d="M 12.016781 9.637 C 12.016781 9.637 12.118344 9.8245 12.1535 9.902625 C 12.188656 9.976844 12.239437 10.097938 12.266781 10.176063 C 12.294125 10.254188 12.337094 10.379188 12.356625 10.457313 C 12.376156 10.539344 12.407406 10.66825 12.419125 10.746375 C 12.43475 10.828406 12.450375 10.961219 12.458187 11.04325 C 12.466 11.125281 12.473812 11.258094 12.473812 11.340125 C 12.473812 11.422156 12.466 11.551063 12.458187 11.633094 C 12.450375 11.715125 12.43475 11.847938 12.419125 11.929969 C 12.407406 12.012 12.376156 12.140906 12.356625 12.219031 C 12.337094 12.297156 12.294125 12.426063 12.266781 12.500281 C 12.239437 12.578406 12.188656 12.703406 12.1535 12.777625 C 12.118344 12.851844 12.055844 12.969031 12.016781 13.039344 C 11.973812 13.109656 11.9035 13.222938 11.856625 13.289344 C 11.80975 13.35575 11.727719 13.461219 11.676937 13.523719 C 11.62225 13.586219 11.532406 13.683875 11.477719 13.742469 C 11.419125 13.801063 11.321469 13.890906 11.258969 13.945594 C 11.192562 13.996375 11.091 14.078406 11.020687 14.125281 C 10.954281 14.172156 10.841 14.242469 10.770687 14.285438 C 10.700375 14.3245 10.583187 14.387 10.508969 14.422156 C 10.43475 14.457313 10.30975 14.508094 10.235531 14.535438 C 10.157406 14.562781 10.032406 14.601844 9.950375 14.625281 C 9.87225 14.644813 9.743344 14.676063 9.661312 14.687781 C 9.579281 14.703406 9.450375 14.719031 9.368344 14.726844 C 9.286312 14.734656 9.071469 14.738563 9.071469 14.738563 " transform="matrix(1,0,0,-1,38.909,16.137)"/>
<path style="fill-rule:nonzero;fill:rgb(0%,67.83905%,93.728638%);fill-opacity:1;stroke-width:1.59404;stroke-linecap:butt;stroke-linejoin:miter;stroke:rgb(0%,67.83905%,93.728638%);stroke-opacity:1;stroke-miterlimit:10;" d="M 9.071469 14.738563 C 9.071469 14.738563 8.856625 14.734656 8.774594 14.726844 C 8.692562 14.719031 8.55975 14.703406 8.481625 14.687781 C 8.399594 14.676063 8.270687 14.644813 8.188656 14.625281 C 8.110531 14.601844 7.985531 14.562781 7.907406 14.535438 C 7.829281 14.508094 7.708187 14.457313 7.633969 14.422156 C 7.55975 14.387 7.442562 14.3245 7.368344 14.285438 C 7.298031 14.242469 7.188656 14.172156 7.118344 14.125281 C 7.051937 14.078406 6.946469 13.996375 6.883969 13.945594 C 6.821469 13.890906 6.723812 13.801063 6.665219 13.742469 C 6.606625 13.683875 6.516781 13.586219 6.466 13.523719 C 6.411312 13.461219 6.333187 13.35575 6.286312 13.289344 C 6.235531 13.222938 6.165219 13.109656 6.126156 13.039344 C 6.083187 12.969031 6.024594 12.851844 5.989437 12.777625 C 5.954281 12.703406 5.9035 12.578406 5.876156 12.500281 C 5.844906 12.426063 5.805844 12.297156 5.786312 12.219031 C 5.762875 12.140906 5.735531 12.012 5.719906 11.929969 C 5.708187 11.847938 5.688656 11.715125 5.680844 11.633094 C 5.676937 11.551063 5.669125 11.422156 5.669125 11.340125 C 5.669125 11.258094 5.676937 11.125281 5.680844 11.04325 C 5.688656 10.961219 5.708187 10.828406 5.719906 10.746375 C 5.735531 10.66825 5.762875 10.539344 5.786312 10.457313 C 5.805844 10.379188 5.844906 10.254188 5.876156 10.176063 C 5.9035 10.097938 5.954281 9.976844 5.989437 9.902625 C 6.024594 9.8245 6.126156 9.637 6.126156 9.637 " transform="matrix(1,0,0,-1,38.909,16.137)"/>
<path style="fill-rule:nonzero;fill:rgb(100%,50%,0%);fill-opacity:1;stroke-width:1.59404;stroke-linecap:butt;stroke-linejoin:miter;stroke:rgb(100%,50%,0%);stroke-opacity:1;stroke-miterlimit:10;" d="M 6.126156 9.637 C 6.126156 9.637 6.235531 9.453406 6.286312 9.387 C 6.333187 9.320594 6.411312 9.215125 6.466 9.152625 C 6.516781 9.090125 6.606625 8.992469 6.665219 8.933875 C 6.723812 8.875281 6.821469 8.785438 6.883969 8.734656 C 6.946469 8.679969 7.051937 8.597938 7.118344 8.551063 C 7.188656 8.504188 7.298031 8.433875 7.368344 8.390906 C 7.442562 8.351844 7.55975 8.289344 7.633969 8.254188 C 7.708187 8.222938 7.829281 8.172156 7.907406 8.140906 C 7.985531 8.113563 8.110531 8.0745 8.188656 8.051063 C 8.270687 8.031531 8.399594 8.004188 8.481625 7.988563 C 8.55975 7.972938 8.692562 7.957313 8.774594 7.9495 C 8.856625 7.941688 8.989437 7.937781 9.071469 7.937781 C 9.1535 7.937781 9.286312 7.941688 9.368344 7.9495 C 9.450375 7.957313 9.579281 7.972938 9.661312 7.988563 C 9.743344 8.004188 9.87225 8.031531 9.950375 8.051063 C 10.032406 8.0745 10.157406 8.113563 10.235531 8.140906 C 10.30975 8.172156 10.43475 8.222938 10.508969 8.254188 C 10.583187 8.289344 10.700375 8.351844 10.770687 8.390906 C 10.841 8.433875 10.954281 8.504188 11.020687 8.551063 C 11.091 8.597938 11.192562 8.679969 11.258969 8.734656 C 11.321469 8.785438 11.419125 8.875281 11.477719 8.933875 C 11.532406 8.992469 11.62225 9.090125 11.676937 9.152625 C 11.727719 9.215125 11.80975 9.320594 11.856625 9.387 C 11.9035 9.453406 12.016781 9.637 12.016781 9.637 " transform="matrix(1,0,0,-1,38.909,16.137)"/>
<path style="fill:none;stroke-width:0.79701;stroke-linecap:butt;stroke-linejoin:miter;stroke:rgb(0%,0%,0%);stroke-opacity:1;stroke-miterlimit:10;" d="M -11.338688 -14.1755 L -11.338688 -8.503625 " transform="matrix(1,0,0,-1,38.909,16.137)"/>
<path style="fill-rule:nonzero;fill:rgb(75%,50%,25%);fill-opacity:1;stroke-width:1.59404;stroke-linecap:butt;stroke-linejoin:miter;stroke:rgb(75%,50%,25%);stroke-opacity:1;stroke-miterlimit:10;" d="M -8.393375 -13.038781 C -8.393375 -13.038781 -8.291813 -12.851281 -8.256656 -12.777062 C -8.2215 -12.702844 -8.170719 -12.577844 -8.143375 -12.503625 C -8.112125 -12.4255 -8.073063 -12.296594 -8.053531 -12.218469 C -8.030094 -12.140344 -8.00275 -12.011437 -7.987125 -11.929406 C -7.975406 -11.847375 -7.955875 -11.718469 -7.951969 -11.636437 C -7.944156 -11.554406 -7.936344 -11.421594 -7.936344 -11.339562 C -7.936344 -11.257531 -7.944156 -11.124719 -7.951969 -11.042687 C -7.955875 -10.960656 -7.975406 -10.827844 -7.987125 -10.749719 C -8.00275 -10.667687 -8.030094 -10.538781 -8.053531 -10.45675 C -8.073063 -10.378625 -8.112125 -10.253625 -8.143375 -10.1755 C -8.170719 -10.097375 -8.2215 -9.976281 -8.256656 -9.902062 C -8.291813 -9.827844 -8.350406 -9.710656 -8.393375 -9.636437 C -8.432438 -9.566125 -8.506656 -9.45675 -8.553531 -9.386437 C -8.600406 -9.320031 -8.678531 -9.214562 -8.733219 -9.152062 C -8.784 -9.089562 -8.873844 -8.991906 -8.932438 -8.933312 C -8.991031 -8.874719 -9.088688 -8.784875 -9.151188 -8.734094 C -9.213688 -8.679406 -9.319156 -8.597375 -9.385563 -8.5505 C -9.455875 -8.503625 -9.56525 -8.433312 -9.639469 -8.39425 C -9.709781 -8.351281 -9.826969 -8.288781 -9.901188 -8.257531 C -9.975406 -8.222375 -10.0965 -8.171594 -10.174625 -8.140344 C -10.25275 -8.113 -10.37775 -8.073937 -10.459781 -8.054406 C -10.537906 -8.030969 -10.666813 -8.003625 -10.748844 -7.988 C -10.826969 -7.976281 -10.959781 -7.95675 -11.041813 -7.948937 C -11.123844 -7.941125 -11.338688 -7.937219 -11.338688 -7.937219 " transform="matrix(1,0,0,-1,38.909,16.137)"/>
<path style="fill-rule:nonzero;fill:rgb(100%,50%,0%);fill-opacity:1;stroke-width:1.59404;stroke-linecap:butt;stroke-linejoin:miter;stroke:rgb(100%,50%,0%);stroke-opacity:1;stroke-miterlimit:10;" d="M -11.338688 -7.937219 C -11.338688 -7.937219 -11.553531 -7.941125 -11.635563 -7.948937 C -11.717594 -7.95675 -11.8465 -7.976281 -11.928531 -7.988 C -12.010563 -8.003625 -12.139469 -8.030969 -12.217594 -8.054406 C -12.299625 -8.073937 -12.424625 -8.113 -12.50275 -8.140344 C -12.580875 -8.171594 -12.701969 -8.222375 -12.776188 -8.257531 C -12.850406 -8.288781 -12.967594 -8.351281 -13.037906 -8.39425 C -13.112125 -8.433312 -13.2215 -8.503625 -13.287906 -8.5505 C -13.358219 -8.597375 -13.463688 -8.679406 -13.526188 -8.734094 C -13.588688 -8.784875 -13.686344 -8.874719 -13.744938 -8.933312 C -13.803531 -8.991906 -13.889469 -9.089562 -13.944156 -9.152062 C -13.998844 -9.214562 -14.076969 -9.320031 -14.123844 -9.386437 C -14.170719 -9.45675 -14.244938 -9.566125 -14.284 -9.636437 C -14.326969 -9.710656 -14.385563 -9.827844 -14.420719 -9.902062 C -14.455875 -9.976281 -14.506656 -10.097375 -14.534 -10.1755 C -14.561344 -10.253625 -14.604313 -10.378625 -14.623844 -10.45675 C -14.647281 -10.538781 -14.674625 -10.667687 -14.69025 -10.749719 C -14.701969 -10.827844 -14.7215 -10.960656 -14.725406 -11.042687 C -14.733219 -11.124719 -14.741031 -11.257531 -14.741031 -11.339562 C -14.741031 -11.421594 -14.733219 -11.554406 -14.725406 -11.636437 C -14.7215 -11.718469 -14.701969 -11.847375 -14.69025 -11.929406 C -14.674625 -12.011437 -14.647281 -12.140344 -14.623844 -12.218469 C -14.604313 -12.296594 -14.561344 -12.4255 -14.534 -12.503625 C -14.506656 -12.577844 -14.455875 -12.702844 -14.420719 -12.777062 C -14.385563 -12.851281 -14.284 -13.038781 -14.284 -13.038781 " transform="matrix(1,0,0,-1,38.909,16.137)"/>
<path style="fill-rule:nonzero;fill:rgb(75%,100%,0%);fill-opacity:1;stroke-width:1.59404;stroke-linecap:butt;stroke-linejoin:miter;stroke:rgb(75%,100%,0%);stroke-opacity:1;stroke-miterlimit:10;" d="M -14.284 -13.038781 C -14.284 -13.038781 -14.170719 -13.222375 -14.123844 -13.288781 C -14.076969 -13.355187 -13.998844 -13.460656 -13.944156 -13.523156 C -13.889469 -13.589562 -13.803531 -13.687219 -13.744938 -13.741906 C -13.686344 -13.8005 -13.588688 -13.890344 -13.526188 -13.945031 C -13.463688 -13.995812 -13.358219 -14.077844 -13.287906 -14.124719 C -13.2215 -14.171594 -13.112125 -14.241906 -13.037906 -14.284875 C -12.967594 -14.323937 -12.850406 -14.386437 -12.776188 -14.421594 C -12.701969 -14.45675 -12.580875 -14.507531 -12.50275 -14.534875 C -12.424625 -14.562219 -12.299625 -14.601281 -12.217594 -14.624719 C -12.139469 -14.64425 -12.010563 -14.6755 -11.928531 -14.687219 C -11.8465 -14.702844 -11.717594 -14.718469 -11.635563 -14.726281 C -11.553531 -14.734094 -11.420719 -14.741906 -11.338688 -14.741906 C -11.256656 -14.741906 -11.123844 -14.734094 -11.041813 -14.726281 C -10.959781 -14.718469 -10.826969 -14.702844 -10.748844 -14.687219 C -10.666813 -14.6755 -10.537906 -14.64425 -10.459781 -14.624719 C -10.37775 -14.601281 -10.25275 -14.562219 -10.174625 -14.534875 C -10.0965 -14.507531 -9.975406 -14.45675 -9.901188 -14.421594 C -9.826969 -14.386437 -9.709781 -14.323937 -9.639469 -14.284875 C -9.56525 -14.241906 -9.455875 -14.171594 -9.385563 -14.124719 C -9.319156 -14.077844 -9.213688 -13.995812 -9.151188 -13.945031 C -9.088688 -13.890344 -8.991031 -13.8005 -8.932438 -13.741906 C -8.873844 -13.687219 -8.784 -13.589562 -8.733219 -13.523156 C -8.678531 -13.460656 -8.600406 -13.355187 -8.553531 -13.288781 C -8.506656 -13.222375 -8.393375 -13.038781 -8.393375 -13.038781 " transform="matrix(1,0,0,-1,38.909,16.137)"/>
<path style="fill:none;stroke-width:0.79701;stroke-linecap:butt;stroke-linejoin:miter;stroke:rgb(0%,0%,0%);stroke-opacity:1;stroke-miterlimit:10;" d="M 11.337094 -14.1755 L 11.337094 -8.503625 " transform="matrix(1,0,0,-1,38.909,16.137)"/>
<path style="fill-rule:nonzero;fill:rgb(50%,0%,50%);fill-opacity:1;stroke-width:1.59404;stroke-linecap:butt;stroke-linejoin:miter;stroke:rgb(50%,0%,50%);stroke-opacity:1;stroke-miterlimit:10;" d="M 14.282406 -13.038781 C 14.282406 -13.038781 14.387875 -12.851281 14.423031 -12.777062 C 14.454281 -12.702844 14.505062 -12.577844 14.536312 -12.503625 C 14.563656 -12.4255 14.602719 -12.296594 14.626156 -12.218469 C 14.645687 -12.140344 14.673031 -12.011437 14.688656 -11.929406 C 14.704281 -11.847375 14.719906 -11.718469 14.727719 -11.636437 C 14.735531 -11.554406 14.739437 -11.421594 14.739437 -11.339562 C 14.739437 -11.257531 14.735531 -11.124719 14.727719 -11.042687 C 14.719906 -10.960656 14.704281 -10.827844 14.688656 -10.749719 C 14.673031 -10.667687 14.645687 -10.538781 14.626156 -10.45675 C 14.602719 -10.378625 14.563656 -10.253625 14.536312 -10.1755 C 14.505062 -10.097375 14.454281 -9.976281 14.423031 -9.902062 C 14.387875 -9.827844 14.325375 -9.710656 14.282406 -9.636437 C 14.243344 -9.566125 14.173031 -9.45675 14.126156 -9.386437 C 14.079281 -9.320031 13.99725 -9.214562 13.942562 -9.152062 C 13.891781 -9.089562 13.801937 -8.991906 13.743344 -8.933312 C 13.68475 -8.874719 13.587094 -8.784875 13.524594 -8.734094 C 13.462094 -8.679406 13.356625 -8.597375 13.290219 -8.5505 C 13.223812 -8.503625 13.110531 -8.433312 13.040219 -8.39425 C 12.969906 -8.351281 12.848812 -8.288781 12.774594 -8.257531 C 12.700375 -8.222375 12.579281 -8.171594 12.501156 -8.140344 C 12.423031 -8.113 12.298031 -8.073937 12.219906 -8.054406 C 12.137875 -8.030969 12.008969 -8.003625 11.930844 -7.988 C 11.848812 -7.976281 11.716 -7.95675 11.633969 -7.948937 C 11.551937 -7.941125 11.337094 -7.937219 11.337094 -7.937219 " transform="matrix(1,0,0,-1,38.909,16.137)"/>
<path style="fill-rule:nonzero;fill:rgb(0%,0%,100%);fill-opacity:1;stroke-width:1.59404;stroke-linecap:butt;stroke-linejoin:miter;stroke:rgb(0%,0%,100%);stroke-opacity:1;stroke-miterlimit:10;" d="M 11.337094 -7.937219 C 11.337094 -7.937219 11.12225 -7.941125 11.040219 -7.948937 C 10.962094 -7.95675 10.829281 -7.976281 10.74725 -7.988 C 10.665219 -8.003625 10.536312 -8.030969 10.458187 -8.054406 C 10.380062 -8.073937 10.251156 -8.113 10.176937 -8.140344 C 10.098812 -8.171594 9.973812 -8.222375 9.899594 -8.257531 C 9.825375 -8.288781 9.708187 -8.351281 9.637875 -8.39425 C 9.567562 -8.433312 9.454281 -8.503625 9.387875 -8.5505 C 9.321469 -8.597375 9.216 -8.679406 9.1535 -8.734094 C 9.091 -8.784875 8.993344 -8.874719 8.93475 -8.933312 C 8.876156 -8.991906 8.786312 -9.089562 8.731625 -9.152062 C 8.680844 -9.214562 8.598812 -9.320031 8.551937 -9.386437 C 8.505062 -9.45675 8.43475 -9.566125 8.391781 -9.636437 C 8.352719 -9.710656 8.290219 -9.827844 8.255062 -9.902062 C 8.219906 -9.976281 8.169125 -10.097375 8.141781 -10.1755 C 8.114437 -10.253625 8.075375 -10.378625 8.051937 -10.45675 C 8.032406 -10.538781 8.001156 -10.667687 7.989437 -10.749719 C 7.973812 -10.827844 7.958187 -10.960656 7.950375 -11.042687 C 7.942562 -11.124719 7.938656 -11.257531 7.938656 -11.339562 C 7.938656 -11.421594 7.942562 -11.554406 7.950375 -11.636437 C 7.958187 -11.718469 7.973812 -11.847375 7.989437 -11.929406 C 8.001156 -12.011437 8.032406 -12.140344 8.051937 -12.218469 C 8.075375 -12.296594 8.114437 -12.4255 8.141781 -12.503625 C 8.169125 -12.577844 8.219906 -12.702844 8.255062 -12.777062 C 8.290219 -12.851281 8.391781 -13.038781 8.391781 -13.038781 " transform="matrix(1,0,0,-1,38.909,16.137)"/>
<path style="fill-rule:nonzero;fill:rgb(0%,50%,50%);fill-opacity:1;stroke-width:1.59404;stroke-linecap:butt;stroke-linejoin:miter;stroke:rgb(0%,50%,50%);stroke-opacity:1;stroke-miterlimit:10;" d="M 8.391781 -13.038781 C 8.391781 -13.038781 8.505062 -13.222375 8.551937 -13.288781 C 8.598812 -13.355187 8.680844 -13.460656 8.731625 -13.523156 C 8.786312 -13.589562 8.876156 -13.687219 8.93475 -13.741906 C 8.993344 -13.8005 9.091 -13.890344 9.1535 -13.945031 C 9.216 -13.995812 9.321469 -14.077844 9.387875 -14.124719 C 9.454281 -14.171594 9.567562 -14.241906 9.637875 -14.284875 C 9.708187 -14.323937 9.825375 -14.386437 9.899594 -14.421594 C 9.973812 -14.45675 10.098812 -14.507531 10.176937 -14.534875 C 10.251156 -14.562219 10.380062 -14.601281 10.458187 -14.624719 C 10.536312 -14.64425 10.665219 -14.6755 10.74725 -14.687219 C 10.829281 -14.702844 10.962094 -14.718469 11.040219 -14.726281 C 11.12225 -14.734094 11.255062 -14.741906 11.337094 -14.741906 C 11.419125 -14.741906 11.551937 -14.734094 11.633969 -14.726281 C 11.716 -14.718469 11.848812 -14.702844 11.930844 -14.687219 C 12.008969 -14.6755 12.137875 -14.64425 12.219906 -14.624719 C 12.298031 -14.601281 12.423031 -14.562219 12.501156 -14.534875 C 12.579281 -14.507531 12.700375 -14.45675 12.774594 -14.421594 C 12.848812 -14.386437 12.969906 -14.323937 13.040219 -14.284875 C 13.110531 -14.241906 13.223812 -14.171594 13.290219 -14.124719 C 13.356625 -14.077844 13.462094 -13.995812 13.524594 -13.945031 C 13.587094 -13.890344 13.68475 -13.8005 13.743344 -13.741906 C 13.801937 -13.687219 13.891781 -13.589562 13.942562 -13.523156 C 13.99725 -13.460656 14.079281 -13.355187 14.126156 -13.288781 C 14.173031 -13.222375 14.282406 -13.038781 14.282406 -13.038781 " transform="matrix(1,0,0,-1,38.909,16.137)"/>
<path style="fill-rule:nonzero;fill:rgb(100%,100%,100%);fill-opacity:1;stroke-width:0.3985;stroke-linecap:butt;stroke-linejoin:miter;stroke:rgb(100%,100%,100%);stroke-opacity:1;stroke-miterlimit:10;" d="M 2.1535 -68.034875 C 2.1535 -66.843469 1.188656 -65.878625 0.00115625 -65.878625 C -1.19025 -65.878625 -2.155094 -66.843469 -2.155094 -68.034875 C -2.155094 -69.222375 -1.19025 -70.187219 0.00115625 -70.187219 C 1.188656 -70.187219 2.1535 -69.222375 2.1535 -68.034875 Z M 2.1535 -68.034875 " transform="matrix(1,0,0,-1,38.909,16.137)"/>
<path style="fill-rule:nonzero;fill:rgb(100%,100%,100%);fill-opacity:1;stroke-width:0.3985;stroke-linecap:butt;stroke-linejoin:miter;stroke:rgb(100%,100%,100%);stroke-opacity:1;stroke-miterlimit:10;" d="M -31.862125 0.00028125 C -31.862125 1.191688 -32.826969 2.152625 -34.018375 2.152625 C -35.205875 2.152625 -36.170719 1.191688 -36.170719 0.00028125 C -36.170719 -1.191125 -35.205875 -2.155969 -34.018375 -2.155969 C -32.826969 -2.155969 -31.862125 -1.191125 -31.862125 0.00028125 Z M -31.862125 0.00028125 " transform="matrix(1,0,0,-1,38.909,16.137)"/>
<path style="fill-rule:nonzero;fill:rgb(100%,100%,100%);fill-opacity:1;stroke-width:0.3985;stroke-linecap:butt;stroke-linejoin:miter;stroke:rgb(100%,100%,100%);stroke-opacity:1;stroke-miterlimit:10;" d="M 36.173031 0.00028125 C 36.173031 1.191688 35.208187 2.152625 34.016781 2.152625 C 32.825375 2.152625 31.860531 1.191688 31.860531 0.00028125 C 31.860531 -1.191125 32.825375 -2.155969 34.016781 -2.155969 C 35.208187 -2.155969 36.173031 -1.191125 36.173031 0.00028125 Z M 36.173031 0.00028125 " transform="matrix(1,0,0,-1,38.909,16.137)"/>
<path style="fill-rule:nonzero;fill:rgb(100%,100%,100%);fill-opacity:1;stroke-width:0.3985;stroke-linecap:butt;stroke-linejoin:miter;stroke:rgb(100%,100%,100%);stroke-opacity:1;stroke-miterlimit:10;" d="M -9.186344 -11.339562 C -9.186344 -10.148156 -10.147281 -9.183312 -11.338688 -9.183312 C -12.530094 -9.183312 -13.494938 -10.148156 -13.494938 -11.339562 C -13.494938 -12.527062 -12.530094 -13.491906 -11.338688 -13.491906 C -10.147281 -13.491906 -9.186344 -12.527062 -9.186344 -11.339562 Z M -9.186344 -11.339562 " transform="matrix(1,0,0,-1,38.909,16.137)"/>
<path style="fill-rule:nonzero;fill:rgb(100%,100%,100%);fill-opacity:1;stroke-width:0.3985;stroke-linecap:butt;stroke-linejoin:miter;stroke:rgb(100%,100%,100%);stroke-opacity:1;stroke-miterlimit:10;" d="M -6.916813 11.340125 C -6.916813 12.527625 -7.881656 13.492469 -9.073063 13.492469 C -10.260563 13.492469 -11.225406 12.527625 -11.225406 11.340125 C -11.225406 10.148719 -10.260563 9.183875 -9.073063 9.183875 C -7.881656 9.183875 -6.916813 10.148719 -6.916813 11.340125 Z M -6.916813 11.340125 " transform="matrix(1,0,0,-1,38.909,16.137)"/>
<path style="fill-rule:nonzero;fill:rgb(100%,100%,100%);fill-opacity:1;stroke-width:0.3985;stroke-linecap:butt;stroke-linejoin:miter;stroke:rgb(100%,100%,100%);stroke-opacity:1;stroke-miterlimit:10;" d="M 13.493344 -11.339562 C 13.493344 -10.148156 12.5285 -9.183312 11.337094 -9.183312 C 10.149594 -9.183312 9.18475 -10.148156 9.18475 -11.339562 C 9.18475 -12.527062 10.149594 -13.491906 11.337094 -13.491906 C 12.5285 -13.491906 13.493344 -12.527062 13.493344 -11.339562 Z M 13.493344 -11.339562 " transform="matrix(1,0,0,-1,38.909,16.137)"/>
<path style="fill-rule:nonzero;fill:rgb(100%,100%,100%);fill-opacity:1;stroke-width:0.3985;stroke-linecap:butt;stroke-linejoin:miter;stroke:rgb(100%,100%,100%);stroke-opacity:1;stroke-miterlimit:10;" d="M 11.223812 11.340125 C 11.223812 12.527625 10.262875 13.492469 9.071469 13.492469 C 7.880062 13.492469 6.915219 12.527625 6.915219 11.340125 C 6.915219 10.148719 7.880062 9.183875 9.071469 9.183875 C 10.262875 9.183875 11.223812 10.148719 11.223812 11.340125 Z M 11.223812 11.340125 " transform="matrix(1,0,0,-1,38.909,16.137)"/>
</g>
</svg>
