<?xml version="1.0" encoding="UTF-8"?>
<svg xmlns="http://www.w3.org/2000/svg" xmlns:xlink="http://www.w3.org/1999/xlink" width="63pt" height="74pt" viewBox="0 0 63 74" version="1.1">
<g id="surface1">
<path style=" stroke:none;fill-rule:nonzero;fill:rgb(100%,0%,0%);fill-opacity:1;" d="M 62.039062 59.613281 C 62.039062 58.675781 61.277344 57.914062 60.339844 57.914062 C 59.398438 57.914062 58.636719 58.675781 58.636719 59.613281 C 58.636719 60.554688 59.398438 61.316406 60.339844 61.316406 C 61.277344 61.316406 62.039062 60.554688 62.039062 59.613281 Z M 62.039062 59.613281 "/>
<path style=" stroke:none;fill-rule:nonzero;fill:rgb(100%,0%,0%);fill-opacity:1;" d="M 26.117188 42.140625 C 26.117188 41.203125 25.355469 40.441406 24.417969 40.441406 C 23.476562 40.441406 22.714844 41.203125 22.714844 42.140625 C 22.714844 43.082031 23.476562 43.84375 24.417969 43.84375 C 25.355469 43.84375 26.117188 43.082031 26.117188 42.140625 Z M 26.117188 42.140625 "/>
<path style=" stroke:none;fill-rule:nonzero;fill:rgb(100%,0%,0%);fill-opacity:1;" d="M 59.597656 20.375 C 59.597656 19.4375 58.835938 18.675781 57.894531 18.675781 C 56.957031 18.675781 56.195312 19.4375 56.195312 20.375 C 56.195312 21.3125 56.957031 22.074219 57.894531 22.074219 C 58.835938 22.074219 59.597656 21.3125 59.597656 20.375 Z M 59.597656 20.375 "/>
<path style="fill:none;stroke-width:0.79701;stroke-linecap:butt;stroke-linejoin:miter;stroke:rgb(0%,0%,0%);stroke-opacity:1;stroke-miterlimit:10;" d="M -19.641063 -11.336969 L 19.640187 -11.336969 L -0.0004375 22.678656 L -19.641063 -11.336969 L -0.0004375 -45.3565 L 19.640187 -11.336969 " transform="matrix(1,0,0,-1,22.727,25.581)"/>
<path style="fill:none;stroke-width:0.79701;stroke-linecap:butt;stroke-linejoin:miter;stroke:rgb(0%,0%,0%);stroke-opacity:1;stroke-miterlimit:10;" d="M -0.0004375 -45.3565 L 37.612844 -34.032281 " transform="matrix(1,0,0,-1,22.727,25.581)"/>
<path style="fill:none;stroke-width:0.79701;stroke-linecap:butt;stroke-linejoin:miter;stroke:rgb(0%,0%,0%);stroke-opacity:1;stroke-miterlimit:10;" d="M 1.690969 -16.559625 L 35.167531 5.206 L -0.0004375 22.678656 L 1.690969 -16.559625 L 37.612844 -34.032281 L 35.167531 5.206 " transform="matrix(1,0,0,-1,22.727,25.581)"/>
<path style="fill-rule:nonzero;fill:rgb(100%,94.898987%,0%);fill-opacity:1;stroke-width:1.59404;stroke-linecap:butt;stroke-linejoin:miter;stroke:rgb(100%,94.898987%,0%);stroke-opacity:1;stroke-miterlimit:10;" d="M 3.390187 -16.559625 C 3.390187 -15.622125 2.628469 -14.860406 1.690969 -14.860406 C 0.749562 -14.860406 -0.0121563 -15.622125 -0.0121563 -16.559625 C -0.0121563 -17.501031 0.749562 -18.26275 1.690969 -18.26275 C 2.628469 -18.26275 3.390187 -17.501031 3.390187 -16.559625 Z M 3.390187 -16.559625 " transform="matrix(1,0,0,-1,22.727,25.581)"/>
<path style="fill-rule:nonzero;fill:rgb(100%,0%,0%);fill-opacity:1;stroke-width:1.59404;stroke-linecap:butt;stroke-linejoin:miter;stroke:rgb(100%,0%,0%);stroke-opacity:1;stroke-miterlimit:10;" d="M 1.698781 22.678656 C 1.698781 23.616156 0.940969 24.377875 -0.0004375 24.377875 C -0.937938 24.377875 -1.699656 23.616156 -1.699656 22.678656 C -1.699656 21.73725 -0.937938 20.975531 -0.0004375 20.975531 C 0.940969 20.975531 1.698781 21.73725 1.698781 22.678656 Z M 1.698781 22.678656 " transform="matrix(1,0,0,-1,22.727,25.581)"/>
<path style="fill-rule:nonzero;fill:rgb(0%,0%,100%);fill-opacity:1;stroke-width:1.59404;stroke-linecap:butt;stroke-linejoin:miter;stroke:rgb(0%,0%,100%);stroke-opacity:1;stroke-miterlimit:10;" d="M -17.937938 -11.336969 C -17.937938 -10.399469 -18.699656 -9.63775 -19.641063 -9.63775 C -20.578563 -9.63775 -21.340281 -10.399469 -21.340281 -11.336969 C -21.340281 -12.278375 -20.578563 -13.040094 -19.641063 -13.040094 C -18.699656 -13.040094 -17.937938 -12.278375 -17.937938 -11.336969 Z M -17.937938 -11.336969 " transform="matrix(1,0,0,-1,22.727,25.581)"/>
<path style="fill-rule:nonzero;fill:rgb(0%,0%,100%);fill-opacity:1;stroke-width:1.59404;stroke-linecap:butt;stroke-linejoin:miter;stroke:rgb(0%,0%,100%);stroke-opacity:1;stroke-miterlimit:10;" d="M 36.870656 5.206 C 36.870656 6.1435 36.108937 6.905219 35.167531 6.905219 C 34.230031 6.905219 33.468312 6.1435 33.468312 5.206 C 33.468312 4.2685 34.230031 3.506781 35.167531 3.506781 C 36.108937 3.506781 36.870656 4.2685 36.870656 5.206 Z M 36.870656 5.206 " transform="matrix(1,0,0,-1,22.727,25.581)"/>
<path style="fill-rule:nonzero;fill:rgb(0%,100%,0%);fill-opacity:1;stroke-width:1.59404;stroke-linecap:butt;stroke-linejoin:miter;stroke:rgb(0%,100%,0%);stroke-opacity:1;stroke-miterlimit:10;" d="M 21.339406 -11.336969 C 21.339406 -10.399469 20.577687 -9.63775 19.640187 -9.63775 C 18.698781 -9.63775 17.937062 -10.399469 17.937062 -11.336969 C 17.937062 -12.278375 18.698781 -13.040094 19.640187 -13.040094 C 20.577687 -13.040094 21.339406 -12.278375 21.339406 -11.336969 Z M 21.339406 -11.336969 " transform="matrix(1,0,0,-1,22.727,25.581)"/>
<path style="fill-rule:nonzero;fill:rgb(100%,0%,0%);fill-opacity:1;stroke-width:1.59404;stroke-linecap:butt;stroke-linejoin:miter;stroke:rgb(100%,0%,0%);stroke-opacity:1;stroke-miterlimit:10;" d="M 1.698781 -45.3565 C 1.698781 -44.415094 0.940969 -43.653375 -0.0004375 -43.653375 C -0.937938 -43.653375 -1.699656 -44.415094 -1.699656 -45.3565 C -1.699656 -46.294 -0.937938 -47.055719 -0.0004375 -47.055719 C 0.940969 -47.055719 1.698781 -46.294 1.698781 -45.3565 Z M 1.698781 -45.3565 " transform="matrix(1,0,0,-1,22.727,25.581)"/>
<path style="fill-rule:nonzero;fill:rgb(0%,100%,0%);fill-opacity:1;stroke-width:1.59404;stroke-linecap:butt;stroke-linejoin:miter;stroke:rgb(0%,100%,0%);stroke-opacity:1;stroke-miterlimit:10;" d="M 39.312062 -34.032281 C 39.312062 -33.094781 38.550344 -32.333063 37.612844 -32.333063 C 36.671437 -32.333063 35.909719 -33.094781 35.909719 -34.032281 C 35.909719 -34.973688 36.671437 -35.735406 37.612844 -35.735406 C 38.550344 -35.735406 39.312062 -34.973688 39.312062 -34.032281 Z M 39.312062 -34.032281 " transform="matrix(1,0,0,-1,22.727,25.581)"/>
</g>
</svg>
