<?xml version="1.0" encoding="UTF-8"?>
<svg xmlns="http://www.w3.org/2000/svg" xmlns:xlink="http://www.w3.org/1999/xlink" width="437pt" height="240pt" viewBox="0 0 437 240" version="1.1">
<g id="surface1">
<path style="fill-rule:nonzero;fill:rgb(100%,94.898987%,0%);fill-opacity:1;stroke-width:0.3985;stroke-linecap:butt;stroke-linejoin:miter;stroke:rgb(100%,0%,0%);stroke-opacity:1;stroke-miterlimit:10;" d="M 28.346469 0.00003125 C 28.346469 15.656281 15.655062 28.347688 -0.0011875 28.347688 C -15.657438 28.347688 -28.344938 15.656281 -28.344938 0.00003125 C -28.344938 -15.656219 -15.657438 -28.347625 -0.0011875 -28.347625 C 15.655062 -28.347625 28.346469 -15.656219 28.346469 0.00003125 Z M 28.346469 0.00003125 " transform="matrix(1,0,0,-1,35.634,120.043)"/>
<path style="fill-rule:nonzero;fill:rgb(100%,94.898987%,0%);fill-opacity:1;stroke-width:0.3985;stroke-linecap:butt;stroke-linejoin:miter;stroke:rgb(100%,0%,0%);stroke-opacity:1;stroke-miterlimit:10;" d="M 28.346469 -56.695281 C 28.346469 -41.039031 15.655062 -28.347625 -0.0011875 -28.347625 C -15.657438 -28.347625 -28.344938 -41.039031 -28.344938 -56.695281 C -28.344938 -72.347625 -15.657438 -85.039031 -0.0011875 -85.039031 C 15.655062 -85.039031 28.346469 -72.347625 28.346469 -56.695281 Z M 28.346469 -56.695281 " transform="matrix(1,0,0,-1,35.634,120.043)"/>
<path style="fill-rule:nonzero;fill:rgb(100%,94.898987%,0%);fill-opacity:1;stroke-width:0.3985;stroke-linecap:butt;stroke-linejoin:miter;stroke:rgb(100%,0%,0%);stroke-opacity:1;stroke-miterlimit:10;" d="M 28.346469 56.695344 C 28.346469 72.347688 15.655062 85.039094 -0.0011875 85.039094 C -15.657438 85.039094 -28.344938 72.347688 -28.344938 56.695344 C -28.344938 41.039094 -15.657438 28.347688 -0.0011875 28.347688 C 15.655062 28.347688 28.346469 41.039094 28.346469 56.695344 Z M 28.346469 56.695344 " transform="matrix(1,0,0,-1,35.634,120.043)"/>
<path style="fill-rule:nonzero;fill:rgb(100%,94.898987%,0%);fill-opacity:1;stroke-width:0.3985;stroke-linecap:butt;stroke-linejoin:miter;stroke:rgb(100%,0%,0%);stroke-opacity:1;stroke-miterlimit:10;" d="M 77.385531 28.347688 C 77.385531 44.003938 64.694125 56.695344 49.041781 56.695344 C 33.385531 56.695344 20.694125 44.003938 20.694125 28.347688 C 20.694125 12.691438 33.385531 0.00003125 49.041781 0.00003125 C 64.694125 0.00003125 77.385531 12.691438 77.385531 28.347688 Z M 77.385531 28.347688 " transform="matrix(1,0,0,-1,35.634,120.043)"/>
<path style="fill-rule:nonzero;fill:rgb(100%,94.898987%,0%);fill-opacity:1;stroke-width:0.3985;stroke-linecap:butt;stroke-linejoin:miter;stroke:rgb(100%,0%,0%);stroke-opacity:1;stroke-miterlimit:10;" d="M 77.385531 85.039094 C 77.385531 100.695344 64.694125 113.38675 49.041781 113.38675 C 33.385531 113.38675 20.694125 100.695344 20.694125 85.039094 C 20.694125 69.382844 33.385531 56.695344 49.041781 56.695344 C 64.694125 56.695344 77.385531 69.382844 77.385531 85.039094 Z M 77.385531 85.039094 " transform="matrix(1,0,0,-1,35.634,120.043)"/>
<path style="fill-rule:nonzero;fill:rgb(100%,94.898987%,0%);fill-opacity:1;stroke-width:0.3985;stroke-linecap:butt;stroke-linejoin:miter;stroke:rgb(100%,0%,0%);stroke-opacity:1;stroke-miterlimit:10;" d="M 77.385531 -28.347625 C 77.385531 -12.691375 64.694125 0.00003125 49.041781 0.00003125 C 33.385531 0.00003125 20.694125 -12.691375 20.694125 -28.347625 C 20.694125 -44.003875 33.385531 -56.695281 49.041781 -56.695281 C 64.694125 -56.695281 77.385531 -44.003875 77.385531 -28.347625 Z M 77.385531 -28.347625 " transform="matrix(1,0,0,-1,35.634,120.043)"/>
<path style="fill-rule:nonzero;fill:rgb(100%,94.898987%,0%);fill-opacity:1;stroke-width:0.3985;stroke-linecap:butt;stroke-linejoin:miter;stroke:rgb(100%,0%,0%);stroke-opacity:1;stroke-miterlimit:10;" d="M 77.385531 -85.039031 C 77.385531 -69.382781 64.694125 -56.695281 49.041781 -56.695281 C 33.385531 -56.695281 20.694125 -69.382781 20.694125 -85.039031 C 20.694125 -100.695281 33.385531 -113.386687 49.041781 -113.386687 C 64.694125 -113.386687 77.385531 -100.695281 77.385531 -85.039031 Z M 77.385531 -85.039031 " transform="matrix(1,0,0,-1,35.634,120.043)"/>
<path style="fill-rule:nonzero;fill:rgb(100%,94.898987%,0%);fill-opacity:1;stroke-width:0.3985;stroke-linecap:butt;stroke-linejoin:miter;stroke:rgb(100%,0%,0%);stroke-opacity:1;stroke-miterlimit:10;" d="M 126.4285 0.00003125 C 126.4285 15.656281 113.737094 28.347688 98.080844 28.347688 C 82.424594 28.347688 69.733187 15.656281 69.733187 0.00003125 C 69.733187 -15.656219 82.424594 -28.347625 98.080844 -28.347625 C 113.737094 -28.347625 126.4285 -15.656219 126.4285 0.00003125 Z M 126.4285 0.00003125 " transform="matrix(1,0,0,-1,35.634,120.043)"/>
<path style="fill-rule:nonzero;fill:rgb(100%,94.898987%,0%);fill-opacity:1;stroke-width:0.3985;stroke-linecap:butt;stroke-linejoin:miter;stroke:rgb(100%,0%,0%);stroke-opacity:1;stroke-miterlimit:10;" d="M 126.4285 56.695344 C 126.4285 72.347688 113.737094 85.039094 98.080844 85.039094 C 82.424594 85.039094 69.733187 72.347688 69.733187 56.695344 C 69.733187 41.039094 82.424594 28.347688 98.080844 28.347688 C 113.737094 28.347688 126.4285 41.039094 126.4285 56.695344 Z M 126.4285 56.695344 " transform="matrix(1,0,0,-1,35.634,120.043)"/>
<path style="fill-rule:nonzero;fill:rgb(100%,94.898987%,0%);fill-opacity:1;stroke-width:0.3985;stroke-linecap:butt;stroke-linejoin:miter;stroke:rgb(100%,0%,0%);stroke-opacity:1;stroke-miterlimit:10;" d="M 126.4285 -56.695281 C 126.4285 -41.039031 113.737094 -28.347625 98.080844 -28.347625 C 82.424594 -28.347625 69.733187 -41.039031 69.733187 -56.695281 C 69.733187 -72.347625 82.424594 -85.039031 98.080844 -85.039031 C 113.737094 -85.039031 126.4285 -72.347625 126.4285 -56.695281 Z M 126.4285 -56.695281 " transform="matrix(1,0,0,-1,35.634,120.043)"/>
<path style="fill-rule:nonzero;fill:rgb(100%,94.898987%,0%);fill-opacity:1;stroke-width:0.3985;stroke-linecap:butt;stroke-linejoin:miter;stroke:rgb(100%,0%,0%);stroke-opacity:1;stroke-miterlimit:10;" d="M 175.467562 28.347688 C 175.467562 44.003938 162.776156 56.695344 147.119906 56.695344 C 131.463656 56.695344 118.77225 44.003938 118.77225 28.347688 C 118.77225 12.691438 131.463656 0.00003125 147.119906 0.00003125 C 162.776156 0.00003125 175.467562 12.691438 175.467562 28.347688 Z M 175.467562 28.347688 " transform="matrix(1,0,0,-1,35.634,120.043)"/>
<path style="fill-rule:nonzero;fill:rgb(100%,94.898987%,0%);fill-opacity:1;stroke-width:0.3985;stroke-linecap:butt;stroke-linejoin:miter;stroke:rgb(100%,0%,0%);stroke-opacity:1;stroke-miterlimit:10;" d="M 175.467562 85.039094 C 175.467562 100.695344 162.776156 113.38675 147.119906 113.38675 C 131.463656 113.38675 118.77225 100.695344 118.77225 85.039094 C 118.77225 69.382844 131.463656 56.695344 147.119906 56.695344 C 162.776156 56.695344 175.467562 69.382844 175.467562 85.039094 Z M 175.467562 85.039094 " transform="matrix(1,0,0,-1,35.634,120.043)"/>
<path style="fill-rule:nonzero;fill:rgb(100%,94.898987%,0%);fill-opacity:1;stroke-width:0.3985;stroke-linecap:butt;stroke-linejoin:miter;stroke:rgb(100%,0%,0%);stroke-opacity:1;stroke-miterlimit:10;" d="M 175.467562 -28.347625 C 175.467562 -12.691375 162.776156 0.00003125 147.119906 0.00003125 C 131.463656 0.00003125 118.77225 -12.691375 118.77225 -28.347625 C 118.77225 -44.003875 131.463656 -56.695281 147.119906 -56.695281 C 162.776156 -56.695281 175.467562 -44.003875 175.467562 -28.347625 Z M 175.467562 -28.347625 " transform="matrix(1,0,0,-1,35.634,120.043)"/>
<path style="fill-rule:nonzero;fill:rgb(100%,94.898987%,0%);fill-opacity:1;stroke-width:0.3985;stroke-linecap:butt;stroke-linejoin:miter;stroke:rgb(100%,0%,0%);stroke-opacity:1;stroke-miterlimit:10;" d="M 175.467562 -85.039031 C 175.467562 -69.382781 162.776156 -56.695281 147.119906 -56.695281 C 131.463656 -56.695281 118.77225 -69.382781 118.77225 -85.039031 C 118.77225 -100.695281 131.463656 -113.386687 147.119906 -113.386687 C 162.776156 -113.386687 175.467562 -100.695281 175.467562 -85.039031 Z M 175.467562 -85.039031 " transform="matrix(1,0,0,-1,35.634,120.043)"/>
<path style="fill-rule:nonzero;fill:rgb(100%,94.898987%,0%);fill-opacity:1;stroke-width:0.3985;stroke-linecap:butt;stroke-linejoin:miter;stroke:rgb(100%,0%,0%);stroke-opacity:1;stroke-miterlimit:10;" d="M 69.842562 110.918 C 69.842562 110.918 70.182406 108.253938 70.405062 107.253938 C 70.627719 106.250031 71.092562 104.656281 71.444125 103.691438 C 71.795687 102.726594 72.463656 101.210969 72.936312 100.300813 C 73.412875 99.38675 74.27225 97.968781 74.858187 97.128938 C 75.448031 96.285188 76.487094 94.992219 77.182406 94.238313 C 77.873812 93.4805 79.073031 92.332063 79.858187 91.671906 C 80.64725 91.01175 81.983187 90.031281 82.850375 89.4805 C 83.717562 88.929719 85.170687 88.128938 86.100375 87.695344 C 87.030062 87.26175 88.576937 86.664094 89.557406 86.3555 C 90.533969 86.043 92.14725 85.648469 93.158969 85.472688 C 94.170687 85.293 95.819125 85.113313 96.842562 85.070344 C 97.869906 85.023469 99.526156 85.058625 100.549594 85.148469 C 101.573031 85.238313 103.213656 85.492219 104.213656 85.714875 C 105.217562 85.937531 106.811312 86.398469 107.776156 86.750031 C 108.741 87.101594 110.256625 87.769563 111.166781 88.246125 C 112.080844 88.718781 113.498812 89.578156 114.338656 90.168 C 115.1785 90.753938 116.471469 91.796906 117.229281 92.488313 C 117.987094 93.183625 119.135531 94.378938 119.795687 95.168 C 120.455844 95.953156 121.436312 97.293 121.987094 98.156281 C 122.537875 99.023469 123.338656 100.476594 123.77225 101.406281 C 124.205844 102.335969 124.8035 103.882844 125.112094 104.863313 C 125.420687 105.843781 125.819125 107.453156 125.994906 108.464875 C 126.174594 109.476594 126.354281 111.125031 126.39725 112.152375 C 126.444125 113.175813 126.319125 115.859406 126.319125 115.859406 " transform="matrix(1,0,0,-1,35.634,120.043)"/>
<path style="fill-rule:nonzero;fill:rgb(100%,94.898987%,0%);fill-opacity:1;stroke-width:0.3985;stroke-linecap:butt;stroke-linejoin:miter;stroke:rgb(100%,0%,0%);stroke-opacity:1;stroke-miterlimit:10;" d="M 126.319125 -115.859344 C 126.319125 -115.859344 126.444125 -113.027312 126.389437 -111.945281 C 126.33475 -110.86325 126.123812 -109.124969 125.920687 -108.058562 C 125.717562 -106.996062 125.268344 -105.30075 124.920687 -104.277312 C 124.573031 -103.249969 123.89725 -101.632781 123.408969 -100.664031 C 122.924594 -99.699187 122.030062 -98.191375 121.416781 -97.296844 C 120.8035 -96.406219 119.70975 -95.035125 118.979281 -94.23825 C 118.244906 -93.437469 116.975375 -92.230437 116.143344 -91.542937 C 115.307406 -90.851531 113.881625 -89.832 112.95975 -89.261687 C 112.037875 -88.691375 110.487094 -87.878875 109.494906 -87.441375 C 108.502719 -87.007781 106.854281 -86.414031 105.815219 -86.117156 C 104.77225 -85.820281 103.057406 -85.460906 101.983187 -85.312469 C 100.908969 -85.160125 99.162875 -85.039031 98.080844 -85.039031 C 96.998812 -85.039031 95.248812 -85.160125 94.174594 -85.312469 C 93.104281 -85.460906 91.389437 -85.820281 90.346469 -86.117156 C 89.3035 -86.414031 87.655062 -87.007781 86.662875 -87.441375 C 85.674594 -87.878875 84.119906 -88.691375 83.198031 -89.261687 C 82.276156 -89.832 80.854281 -90.851531 80.018344 -91.542937 C 79.182406 -92.230437 77.912875 -93.437469 77.182406 -94.23825 C 76.451937 -95.035125 75.358187 -96.406219 74.744906 -97.296844 C 74.127719 -98.191375 73.237094 -99.699187 72.748812 -100.664031 C 72.264437 -101.632781 71.588656 -103.249969 71.237094 -104.277312 C 70.889437 -105.30075 70.444125 -106.996062 70.241 -108.058562 C 70.033969 -109.124969 69.826937 -110.86325 69.77225 -111.945281 C 69.717562 -113.027312 69.842562 -115.859344 69.842562 -115.859344 " transform="matrix(1,0,0,-1,35.634,120.043)"/>
<path style="fill-rule:nonzero;fill:rgb(100%,94.898987%,0%);fill-opacity:1;stroke-width:0.3985;stroke-linecap:butt;stroke-linejoin:miter;stroke:rgb(100%,0%,0%);stroke-opacity:1;stroke-miterlimit:10;" d="M -28.239469 110.918 C -28.239469 110.918 -27.895719 108.253938 -27.673063 107.253938 C -27.450406 106.250031 -26.989469 104.656281 -26.637906 103.691438 C -26.286344 102.726594 -25.618375 101.210969 -25.141813 100.300813 C -24.669156 99.38675 -23.809781 97.968781 -23.219938 97.128938 C -22.630094 96.285188 -21.591031 94.992219 -20.899625 94.238313 C -20.204313 93.4805 -19.009 92.332063 -18.219938 91.671906 C -17.434781 91.01175 -16.094938 90.031281 -15.231656 89.4805 C -14.364469 88.929719 -12.911344 88.128938 -11.981656 87.695344 C -11.048063 87.26175 -9.501188 86.664094 -8.524625 86.3555 C -7.544156 86.043 -5.934781 85.648469 -4.923063 85.472688 C -3.911344 85.293 -2.262906 85.113313 -1.235563 85.070344 C -0.212125 85.023469 1.448031 85.058625 2.471469 85.148469 C 3.494906 85.238313 5.131625 85.492219 6.135531 85.714875 C 7.139437 85.937531 8.729281 86.398469 9.694125 86.750031 C 10.658969 87.101594 12.1785 87.769563 13.088656 88.246125 C 13.998812 88.718781 15.416781 89.578156 16.260531 90.168 C 17.100375 90.753938 18.393344 91.796906 19.151156 92.488313 C 19.908969 93.183625 21.0535 94.378938 21.713656 95.168 C 22.373812 95.953156 23.354281 97.293 23.905062 98.156281 C 24.45975 99.023469 25.256625 100.476594 25.690219 101.406281 C 26.123812 102.335969 26.725375 103.882844 27.033969 104.863313 C 27.342562 105.843781 27.737094 107.453156 27.916781 108.464875 C 28.096469 109.476594 28.27225 111.125031 28.319125 112.152375 C 28.362094 113.175813 28.237094 115.859406 28.237094 115.859406 " transform="matrix(1,0,0,-1,35.634,120.043)"/>
<path style="fill-rule:nonzero;fill:rgb(100%,94.898987%,0%);fill-opacity:1;stroke-width:0.3985;stroke-linecap:butt;stroke-linejoin:miter;stroke:rgb(100%,0%,0%);stroke-opacity:1;stroke-miterlimit:10;" d="M 28.237094 -115.859344 C 28.237094 -115.859344 28.366 -113.027312 28.307406 -111.945281 C 28.252719 -110.86325 28.045687 -109.124969 27.842562 -108.058562 C 27.635531 -106.996062 27.190219 -105.30075 26.842562 -104.277312 C 26.494906 -103.249969 25.815219 -101.632781 25.330844 -100.664031 C 24.842562 -99.699187 23.951937 -98.191375 23.33475 -97.296844 C 22.721469 -96.406219 21.631625 -95.035125 20.89725 -94.23825 C 20.166781 -93.437469 18.89725 -92.230437 18.061312 -91.542937 C 17.225375 -90.851531 15.8035 -89.832 14.881625 -89.261687 C 13.95975 -88.691375 12.408969 -87.878875 11.416781 -87.441375 C 10.424594 -87.007781 8.776156 -86.414031 7.733187 -86.117156 C 6.690219 -85.820281 4.975375 -85.460906 3.905062 -85.312469 C 2.830844 -85.160125 1.08475 -85.039031 -0.0011875 -85.039031 C -1.083219 -85.039031 -2.829313 -85.160125 -3.903531 -85.312469 C -4.97775 -85.460906 -6.692594 -85.820281 -7.731656 -86.117156 C -8.774625 -86.414031 -10.423063 -87.007781 -11.41525 -87.441375 C -12.407438 -87.878875 -13.958219 -88.691375 -14.880094 -89.261687 C -15.801969 -89.832 -17.22775 -90.851531 -18.059781 -91.542937 C -18.895719 -92.230437 -20.16525 -93.437469 -20.899625 -94.23825 C -21.630094 -95.035125 -22.719938 -96.406219 -23.337125 -97.296844 C -23.950406 -98.191375 -24.844938 -99.699187 -25.329313 -100.664031 C -25.817594 -101.632781 -26.493375 -103.249969 -26.841031 -104.277312 C -27.188688 -105.30075 -27.637906 -106.996062 -27.841031 -108.058562 C -28.044156 -109.124969 -28.255094 -110.86325 -28.309781 -111.945281 C -28.364469 -113.027312 -28.239469 -115.859344 -28.239469 -115.859344 " transform="matrix(1,0,0,-1,35.634,120.043)"/>
<path style="fill:none;stroke-width:0.3985;stroke-linecap:butt;stroke-linejoin:miter;stroke:rgb(0%,0%,0%);stroke-opacity:1;stroke-miterlimit:10;" d="M 48.695312 14.199219 L 265.675781 14.199219 " transform="matrix(1,0,0,-1,-48,15)"/>
<path style="fill:none;stroke-width:0.3985;stroke-linecap:butt;stroke-linejoin:miter;stroke:rgb(0%,0%,0%);stroke-opacity:1;stroke-miterlimit:10;" d="M 48.894531 -224.285156 L 48.894531 14.199219 " transform="matrix(1,0,0,-1,-48,15)"/>
<path style="fill:none;stroke-width:0.3985;stroke-linecap:butt;stroke-linejoin:miter;stroke:rgb(0%,0%,0%);stroke-opacity:1;stroke-miterlimit:10;" d="M 265.476562 -224.285156 L 265.476562 14.199219 " transform="matrix(1,0,0,-1,-48,15)"/>
<path style="fill:none;stroke-width:0.3985;stroke-linecap:butt;stroke-linejoin:miter;stroke:rgb(0%,0%,0%);stroke-opacity:1;stroke-miterlimit:10;" d="M 48.695312 -224.285156 L 265.675781 -224.285156 " transform="matrix(1,0,0,-1,-48,15)"/>
<path style="fill-rule:nonzero;fill:rgb(100%,94.898987%,0%);fill-opacity:1;stroke-width:0.3985;stroke-linecap:butt;stroke-linejoin:miter;stroke:rgb(100%,0%,0%);stroke-opacity:1;stroke-miterlimit:10;" d="M 28.346906 0.00003125 C 28.346906 15.656281 15.6555 28.347688 -0.00075 28.347688 C -15.657 28.347688 -28.348406 15.656281 -28.348406 0.00003125 C -28.348406 -15.656219 -15.657 -28.347625 -0.00075 -28.347625 C 15.6555 -28.347625 28.346906 -15.656219 28.346906 0.00003125 Z M 28.346906 0.00003125 " transform="matrix(1,0,0,-1,254.407,120.043)"/>
<path style="fill-rule:nonzero;fill:rgb(100%,94.898987%,0%);fill-opacity:1;stroke-width:0.3985;stroke-linecap:butt;stroke-linejoin:miter;stroke:rgb(100%,0%,0%);stroke-opacity:1;stroke-miterlimit:10;" d="M 28.346906 -56.695281 C 28.346906 -41.039031 15.6555 -28.347625 -0.00075 -28.347625 C -15.657 -28.347625 -28.348406 -41.039031 -28.348406 -56.695281 C -28.348406 -72.347625 -15.657 -85.039031 -0.00075 -85.039031 C 15.6555 -85.039031 28.346906 -72.347625 28.346906 -56.695281 Z M 28.346906 -56.695281 " transform="matrix(1,0,0,-1,254.407,120.043)"/>
<path style="fill-rule:nonzero;fill:rgb(100%,94.898987%,0%);fill-opacity:1;stroke-width:0.3985;stroke-linecap:butt;stroke-linejoin:miter;stroke:rgb(100%,0%,0%);stroke-opacity:1;stroke-miterlimit:10;" d="M 28.346906 56.695344 C 28.346906 72.347688 15.6555 85.039094 -0.00075 85.039094 C -15.657 85.039094 -28.348406 72.347688 -28.348406 56.695344 C -28.348406 41.039094 -15.657 28.347688 -0.00075 28.347688 C 15.6555 28.347688 28.346906 41.039094 28.346906 56.695344 Z M 28.346906 56.695344 " transform="matrix(1,0,0,-1,254.407,120.043)"/>
<path style="fill-rule:nonzero;fill:rgb(100%,94.898987%,0%);fill-opacity:1;stroke-width:0.3985;stroke-linecap:butt;stroke-linejoin:miter;stroke:rgb(100%,0%,0%);stroke-opacity:1;stroke-miterlimit:10;" d="M 77.385969 28.347688 C 77.385969 44.003938 64.694563 56.695344 49.038313 56.695344 C 33.385969 56.695344 20.694563 44.003938 20.694563 28.347688 C 20.694563 12.691438 33.385969 0.00003125 49.038313 0.00003125 C 64.694563 0.00003125 77.385969 12.691438 77.385969 28.347688 Z M 77.385969 28.347688 " transform="matrix(1,0,0,-1,254.407,120.043)"/>
<path style="fill-rule:nonzero;fill:rgb(100%,94.898987%,0%);fill-opacity:1;stroke-width:0.3985;stroke-linecap:butt;stroke-linejoin:miter;stroke:rgb(100%,0%,0%);stroke-opacity:1;stroke-miterlimit:10;" d="M 77.385969 85.039094 C 77.385969 100.695344 64.694563 113.38675 49.038313 113.38675 C 33.385969 113.38675 20.694563 100.695344 20.694563 85.039094 C 20.694563 69.382844 33.385969 56.695344 49.038313 56.695344 C 64.694563 56.695344 77.385969 69.382844 77.385969 85.039094 Z M 77.385969 85.039094 " transform="matrix(1,0,0,-1,254.407,120.043)"/>
<path style="fill-rule:nonzero;fill:rgb(100%,94.898987%,0%);fill-opacity:1;stroke-width:0.3985;stroke-linecap:butt;stroke-linejoin:miter;stroke:rgb(100%,0%,0%);stroke-opacity:1;stroke-miterlimit:10;" d="M 77.385969 -28.347625 C 77.385969 -12.691375 64.694563 0.00003125 49.038313 0.00003125 C 33.385969 0.00003125 20.694563 -12.691375 20.694563 -28.347625 C 20.694563 -44.003875 33.385969 -56.695281 49.038313 -56.695281 C 64.694563 -56.695281 77.385969 -44.003875 77.385969 -28.347625 Z M 77.385969 -28.347625 " transform="matrix(1,0,0,-1,254.407,120.043)"/>
<path style="fill-rule:nonzero;fill:rgb(100%,94.898987%,0%);fill-opacity:1;stroke-width:0.3985;stroke-linecap:butt;stroke-linejoin:miter;stroke:rgb(100%,0%,0%);stroke-opacity:1;stroke-miterlimit:10;" d="M 77.385969 -85.039031 C 77.385969 -69.382781 64.694563 -56.695281 49.038313 -56.695281 C 33.385969 -56.695281 20.694563 -69.382781 20.694563 -85.039031 C 20.694563 -100.695281 33.385969 -113.386687 49.038313 -113.386687 C 64.694563 -113.386687 77.385969 -100.695281 77.385969 -85.039031 Z M 77.385969 -85.039031 " transform="matrix(1,0,0,-1,254.407,120.043)"/>
<path style="fill-rule:nonzero;fill:rgb(100%,94.898987%,0%);fill-opacity:1;stroke-width:0.3985;stroke-linecap:butt;stroke-linejoin:miter;stroke:rgb(100%,0%,0%);stroke-opacity:1;stroke-miterlimit:10;" d="M 126.425031 0.00003125 C 126.425031 15.656281 113.737531 28.347688 98.081281 28.347688 C 82.425031 28.347688 69.733625 15.656281 69.733625 0.00003125 C 69.733625 -15.656219 82.425031 -28.347625 98.081281 -28.347625 C 113.737531 -28.347625 126.425031 -15.656219 126.425031 0.00003125 Z M 126.425031 0.00003125 " transform="matrix(1,0,0,-1,254.407,120.043)"/>
<path style="fill-rule:nonzero;fill:rgb(100%,94.898987%,0%);fill-opacity:1;stroke-width:0.3985;stroke-linecap:butt;stroke-linejoin:miter;stroke:rgb(100%,0%,0%);stroke-opacity:1;stroke-miterlimit:10;" d="M 126.425031 56.695344 C 126.425031 72.347688 113.737531 85.039094 98.081281 85.039094 C 82.425031 85.039094 69.733625 72.347688 69.733625 56.695344 C 69.733625 41.039094 82.425031 28.347688 98.081281 28.347688 C 113.737531 28.347688 126.425031 41.039094 126.425031 56.695344 Z M 126.425031 56.695344 " transform="matrix(1,0,0,-1,254.407,120.043)"/>
<path style="fill-rule:nonzero;fill:rgb(100%,94.898987%,0%);fill-opacity:1;stroke-width:0.3985;stroke-linecap:butt;stroke-linejoin:miter;stroke:rgb(100%,0%,0%);stroke-opacity:1;stroke-miterlimit:10;" d="M 126.425031 -56.695281 C 126.425031 -41.039031 113.737531 -28.347625 98.081281 -28.347625 C 82.425031 -28.347625 69.733625 -41.039031 69.733625 -56.695281 C 69.733625 -72.347625 82.425031 -85.039031 98.081281 -85.039031 C 113.737531 -85.039031 126.425031 -72.347625 126.425031 -56.695281 Z M 126.425031 -56.695281 " transform="matrix(1,0,0,-1,254.407,120.043)"/>
<path style="fill-rule:nonzero;fill:rgb(100%,94.898987%,0%);fill-opacity:1;stroke-width:0.3985;stroke-linecap:butt;stroke-linejoin:miter;stroke:rgb(100%,0%,0%);stroke-opacity:1;stroke-miterlimit:10;" d="M 175.468 28.347688 C 175.468 44.003938 162.776594 56.695344 147.120344 56.695344 C 131.464094 56.695344 118.772688 44.003938 118.772688 28.347688 C 118.772688 12.691438 131.464094 0.00003125 147.120344 0.00003125 C 162.776594 0.00003125 175.468 12.691438 175.468 28.347688 Z M 175.468 28.347688 " transform="matrix(1,0,0,-1,254.407,120.043)"/>
<path style="fill-rule:nonzero;fill:rgb(100%,94.898987%,0%);fill-opacity:1;stroke-width:0.3985;stroke-linecap:butt;stroke-linejoin:miter;stroke:rgb(100%,0%,0%);stroke-opacity:1;stroke-miterlimit:10;" d="M 175.468 85.039094 C 175.468 100.695344 162.776594 113.38675 147.120344 113.38675 C 131.464094 113.38675 118.772688 100.695344 118.772688 85.039094 C 118.772688 69.382844 131.464094 56.695344 147.120344 56.695344 C 162.776594 56.695344 175.468 69.382844 175.468 85.039094 Z M 175.468 85.039094 " transform="matrix(1,0,0,-1,254.407,120.043)"/>
<path style="fill-rule:nonzero;fill:rgb(100%,94.898987%,0%);fill-opacity:1;stroke-width:0.3985;stroke-linecap:butt;stroke-linejoin:miter;stroke:rgb(100%,0%,0%);stroke-opacity:1;stroke-miterlimit:10;" d="M 175.468 -28.347625 C 175.468 -12.691375 162.776594 0.00003125 147.120344 0.00003125 C 131.464094 0.00003125 118.772688 -12.691375 118.772688 -28.347625 C 118.772688 -44.003875 131.464094 -56.695281 147.120344 -56.695281 C 162.776594 -56.695281 175.468 -44.003875 175.468 -28.347625 Z M 175.468 -28.347625 " transform="matrix(1,0,0,-1,254.407,120.043)"/>
<path style="fill-rule:nonzero;fill:rgb(100%,94.898987%,0%);fill-opacity:1;stroke-width:0.3985;stroke-linecap:butt;stroke-linejoin:miter;stroke:rgb(100%,0%,0%);stroke-opacity:1;stroke-miterlimit:10;" d="M 175.468 -85.039031 C 175.468 -69.382781 162.776594 -56.695281 147.120344 -56.695281 C 131.464094 -56.695281 118.772688 -69.382781 118.772688 -85.039031 C 118.772688 -100.695281 131.464094 -113.386687 147.120344 -113.386687 C 162.776594 -113.386687 175.468 -100.695281 175.468 -85.039031 Z M 175.468 -85.039031 " transform="matrix(1,0,0,-1,254.407,120.043)"/>
<path style="fill-rule:nonzero;fill:rgb(0%,0%,100%);fill-opacity:1;stroke-width:0.3985;stroke-linecap:butt;stroke-linejoin:miter;stroke:rgb(0%,0%,0%);stroke-opacity:1;stroke-miterlimit:10;" d="M 14.175031 0.00003125 C 14.175031 7.828156 7.827375 14.171906 -0.00075 14.171906 C -7.828875 14.171906 -14.172625 7.828156 -14.172625 0.00003125 C -14.172625 -7.828094 -7.828875 -14.171844 -0.00075 -14.171844 C 7.827375 -14.171844 14.175031 -7.828094 14.175031 0.00003125 Z M 14.175031 0.00003125 " transform="matrix(1,0,0,-1,254.407,120.043)"/>
<path style="fill-rule:nonzero;fill:rgb(0%,0%,100%);fill-opacity:1;stroke-width:0.3985;stroke-linecap:butt;stroke-linejoin:miter;stroke:rgb(0%,0%,0%);stroke-opacity:1;stroke-miterlimit:10;" d="M 14.175031 -56.695281 C 14.175031 -48.867156 7.827375 -42.5195 -0.00075 -42.5195 C -7.828875 -42.5195 -14.172625 -48.867156 -14.172625 -56.695281 C -14.172625 -64.5195 -7.828875 -70.867156 -0.00075 -70.867156 C 7.827375 -70.867156 14.175031 -64.5195 14.175031 -56.695281 Z M 14.175031 -56.695281 " transform="matrix(1,0,0,-1,254.407,120.043)"/>
<path style="fill-rule:nonzero;fill:rgb(0%,0%,100%);fill-opacity:1;stroke-width:0.3985;stroke-linecap:butt;stroke-linejoin:miter;stroke:rgb(0%,0%,0%);stroke-opacity:1;stroke-miterlimit:10;" d="M 14.175031 56.695344 C 14.175031 64.519563 7.827375 70.867219 -0.00075 70.867219 C -7.828875 70.867219 -14.172625 64.519563 -14.172625 56.695344 C -14.172625 48.867219 -7.828875 42.519563 -0.00075 42.519563 C 7.827375 42.519563 14.175031 48.867219 14.175031 56.695344 Z M 14.175031 56.695344 " transform="matrix(1,0,0,-1,254.407,120.043)"/>
<path style="fill-rule:nonzero;fill:rgb(0%,0%,100%);fill-opacity:1;stroke-width:0.3985;stroke-linecap:butt;stroke-linejoin:miter;stroke:rgb(0%,0%,0%);stroke-opacity:1;stroke-miterlimit:10;" d="M 63.214094 28.347688 C 63.214094 36.175813 56.866438 42.519563 49.038313 42.519563 C 41.210188 42.519563 34.866438 36.175813 34.866438 28.347688 C 34.866438 20.519563 41.210188 14.171906 49.038313 14.171906 C 56.866438 14.171906 63.214094 20.519563 63.214094 28.347688 Z M 63.214094 28.347688 " transform="matrix(1,0,0,-1,254.407,120.043)"/>
<path style="fill-rule:nonzero;fill:rgb(0%,0%,100%);fill-opacity:1;stroke-width:0.3985;stroke-linecap:butt;stroke-linejoin:miter;stroke:rgb(0%,0%,0%);stroke-opacity:1;stroke-miterlimit:10;" d="M 63.214094 85.039094 C 63.214094 92.867219 56.866438 99.214875 49.038313 99.214875 C 41.210188 99.214875 34.866438 92.867219 34.866438 85.039094 C 34.866438 77.210969 41.210188 70.867219 49.038313 70.867219 C 56.866438 70.867219 63.214094 77.210969 63.214094 85.039094 Z M 63.214094 85.039094 " transform="matrix(1,0,0,-1,254.407,120.043)"/>
<path style="fill-rule:nonzero;fill:rgb(0%,0%,100%);fill-opacity:1;stroke-width:0.3985;stroke-linecap:butt;stroke-linejoin:miter;stroke:rgb(0%,0%,0%);stroke-opacity:1;stroke-miterlimit:10;" d="M 63.214094 -28.347625 C 63.214094 -20.5195 56.866438 -14.171844 49.038313 -14.171844 C 41.210188 -14.171844 34.866438 -20.5195 34.866438 -28.347625 C 34.866438 -36.17575 41.210188 -42.5195 49.038313 -42.5195 C 56.866438 -42.5195 63.214094 -36.17575 63.214094 -28.347625 Z M 63.214094 -28.347625 " transform="matrix(1,0,0,-1,254.407,120.043)"/>
<path style="fill-rule:nonzero;fill:rgb(0%,0%,100%);fill-opacity:1;stroke-width:0.3985;stroke-linecap:butt;stroke-linejoin:miter;stroke:rgb(0%,0%,0%);stroke-opacity:1;stroke-miterlimit:10;" d="M 63.214094 -85.039031 C 63.214094 -77.210906 56.866438 -70.867156 49.038313 -70.867156 C 41.210188 -70.867156 34.866438 -77.210906 34.866438 -85.039031 C 34.866438 -92.867156 41.210188 -99.214812 49.038313 -99.214812 C 56.866438 -99.214812 63.214094 -92.867156 63.214094 -85.039031 Z M 63.214094 -85.039031 " transform="matrix(1,0,0,-1,254.407,120.043)"/>
<path style="fill-rule:nonzero;fill:rgb(0%,0%,100%);fill-opacity:1;stroke-width:0.3985;stroke-linecap:butt;stroke-linejoin:miter;stroke:rgb(0%,0%,0%);stroke-opacity:1;stroke-miterlimit:10;" d="M 112.253156 0.00003125 C 112.253156 7.828156 105.909406 14.171906 98.081281 14.171906 C 90.253156 14.171906 83.9055 7.828156 83.9055 0.00003125 C 83.9055 -7.828094 90.253156 -14.171844 98.081281 -14.171844 C 105.909406 -14.171844 112.253156 -7.828094 112.253156 0.00003125 Z M 112.253156 0.00003125 " transform="matrix(1,0,0,-1,254.407,120.043)"/>
<path style="fill-rule:nonzero;fill:rgb(0%,0%,100%);fill-opacity:1;stroke-width:0.3985;stroke-linecap:butt;stroke-linejoin:miter;stroke:rgb(0%,0%,0%);stroke-opacity:1;stroke-miterlimit:10;" d="M 112.253156 56.695344 C 112.253156 64.519563 105.909406 70.867219 98.081281 70.867219 C 90.253156 70.867219 83.9055 64.519563 83.9055 56.695344 C 83.9055 48.867219 90.253156 42.519563 98.081281 42.519563 C 105.909406 42.519563 112.253156 48.867219 112.253156 56.695344 Z M 112.253156 56.695344 " transform="matrix(1,0,0,-1,254.407,120.043)"/>
<path style="fill-rule:nonzero;fill:rgb(0%,0%,100%);fill-opacity:1;stroke-width:0.3985;stroke-linecap:butt;stroke-linejoin:miter;stroke:rgb(0%,0%,0%);stroke-opacity:1;stroke-miterlimit:10;" d="M 112.253156 -56.695281 C 112.253156 -48.867156 105.909406 -42.5195 98.081281 -42.5195 C 90.253156 -42.5195 83.9055 -48.867156 83.9055 -56.695281 C 83.9055 -64.5195 90.253156 -70.867156 98.081281 -70.867156 C 105.909406 -70.867156 112.253156 -64.5195 112.253156 -56.695281 Z M 112.253156 -56.695281 " transform="matrix(1,0,0,-1,254.407,120.043)"/>
<path style="fill-rule:nonzero;fill:rgb(0%,0%,100%);fill-opacity:1;stroke-width:0.3985;stroke-linecap:butt;stroke-linejoin:miter;stroke:rgb(0%,0%,0%);stroke-opacity:1;stroke-miterlimit:10;" d="M 161.292219 28.347688 C 161.292219 36.175813 154.948469 42.519563 147.120344 42.519563 C 139.292219 42.519563 132.948469 36.175813 132.948469 28.347688 C 132.948469 20.519563 139.292219 14.171906 147.120344 14.171906 C 154.948469 14.171906 161.292219 20.519563 161.292219 28.347688 Z M 161.292219 28.347688 " transform="matrix(1,0,0,-1,254.407,120.043)"/>
<path style="fill-rule:nonzero;fill:rgb(0%,0%,100%);fill-opacity:1;stroke-width:0.3985;stroke-linecap:butt;stroke-linejoin:miter;stroke:rgb(0%,0%,0%);stroke-opacity:1;stroke-miterlimit:10;" d="M 161.292219 85.039094 C 161.292219 92.867219 154.948469 99.214875 147.120344 99.214875 C 139.292219 99.214875 132.948469 92.867219 132.948469 85.039094 C 132.948469 77.210969 139.292219 70.867219 147.120344 70.867219 C 154.948469 70.867219 161.292219 77.210969 161.292219 85.039094 Z M 161.292219 85.039094 " transform="matrix(1,0,0,-1,254.407,120.043)"/>
<path style="fill-rule:nonzero;fill:rgb(0%,0%,100%);fill-opacity:1;stroke-width:0.3985;stroke-linecap:butt;stroke-linejoin:miter;stroke:rgb(0%,0%,0%);stroke-opacity:1;stroke-miterlimit:10;" d="M 161.292219 -28.347625 C 161.292219 -20.5195 154.948469 -14.171844 147.120344 -14.171844 C 139.292219 -14.171844 132.948469 -20.5195 132.948469 -28.347625 C 132.948469 -36.17575 139.292219 -42.5195 147.120344 -42.5195 C 154.948469 -42.5195 161.292219 -36.17575 161.292219 -28.347625 Z M 161.292219 -28.347625 " transform="matrix(1,0,0,-1,254.407,120.043)"/>
<path style="fill-rule:nonzero;fill:rgb(0%,0%,100%);fill-opacity:1;stroke-width:0.3985;stroke-linecap:butt;stroke-linejoin:miter;stroke:rgb(0%,0%,0%);stroke-opacity:1;stroke-miterlimit:10;" d="M 161.292219 -85.039031 C 161.292219 -77.210906 154.948469 -70.867156 147.120344 -70.867156 C 139.292219 -70.867156 132.948469 -77.210906 132.948469 -85.039031 C 132.948469 -92.867156 139.292219 -99.214812 147.120344 -99.214812 C 154.948469 -99.214812 161.292219 -92.867156 161.292219 -85.039031 Z M 161.292219 -85.039031 " transform="matrix(1,0,0,-1,254.407,120.043)"/>
<path style="fill-rule:nonzero;fill:rgb(100%,94.898987%,0%);fill-opacity:1;stroke-width:0.3985;stroke-linecap:butt;stroke-linejoin:miter;stroke:rgb(100%,0%,0%);stroke-opacity:1;stroke-miterlimit:10;" d="M 69.843 110.918 C 69.843 110.918 70.182844 108.253938 70.4055 107.253938 C 70.628156 106.250031 71.093 104.656281 71.444563 103.691438 C 71.792219 102.726594 72.464094 101.210969 72.93675 100.300813 C 73.413313 99.38675 74.272688 97.968781 74.858625 97.128938 C 75.448469 96.285188 76.487531 94.992219 77.182844 94.238313 C 77.87425 93.4805 79.073469 92.332063 79.858625 91.671906 C 80.643781 91.01175 81.983625 90.031281 82.850813 89.4805 C 83.714094 88.929719 85.171125 88.128938 86.100813 87.695344 C 87.0305 87.26175 88.577375 86.664094 89.557844 86.3555 C 90.534406 86.043 92.147688 85.648469 93.159406 85.472688 C 94.167219 85.293 95.819563 85.113313 96.843 85.070344 C 97.870344 85.023469 99.526594 85.058625 100.550031 85.148469 C 101.573469 85.238313 103.214094 85.492219 104.214094 85.714875 C 105.218 85.937531 106.81175 86.398469 107.776594 86.750031 C 108.741438 87.101594 110.257063 87.769563 111.167219 88.246125 C 112.077375 88.718781 113.49925 89.578156 114.339094 90.168 C 115.178938 90.753938 116.471906 91.796906 117.229719 92.488313 C 117.987531 93.183625 119.135969 94.378938 119.796125 95.168 C 120.456281 95.953156 121.43675 97.293 121.987531 98.156281 C 122.538313 99.023469 123.339094 100.476594 123.772688 101.406281 C 124.206281 102.335969 124.803938 103.882844 125.112531 104.863313 C 125.421125 105.843781 125.819563 107.453156 125.995344 108.464875 C 126.175031 109.476594 126.354719 111.125031 126.397688 112.152375 C 126.444563 113.175813 126.319563 115.859406 126.319563 115.859406 " transform="matrix(1,0,0,-1,254.407,120.043)"/>
<path style="fill-rule:nonzero;fill:rgb(100%,94.898987%,0%);fill-opacity:1;stroke-width:0.3985;stroke-linecap:butt;stroke-linejoin:miter;stroke:rgb(100%,0%,0%);stroke-opacity:1;stroke-miterlimit:10;" d="M 126.319563 -115.859344 C 126.319563 -115.859344 126.444563 -113.027312 126.389875 -111.945281 C 126.335188 -110.86325 126.12425 -109.124969 125.921125 -108.058562 C 125.718 -106.996062 125.268781 -105.30075 124.921125 -104.277312 C 124.573469 -103.249969 123.897688 -101.632781 123.409406 -100.664031 C 122.925031 -99.699187 122.0305 -98.191375 121.417219 -97.296844 C 120.800031 -96.406219 119.710188 -95.035125 118.979719 -94.23825 C 118.245344 -93.437469 116.975813 -92.230437 116.139875 -91.542937 C 115.307844 -90.851531 113.882063 -89.832 112.960188 -89.261687 C 112.038313 -88.691375 110.487531 -87.878875 109.495344 -87.441375 C 108.503156 -87.007781 106.854719 -86.414031 105.815656 -86.117156 C 104.772688 -85.820281 103.057844 -85.460906 101.983625 -85.312469 C 100.909406 -85.160125 99.163313 -85.039031 98.081281 -85.039031 C 96.995344 -85.039031 95.24925 -85.160125 94.175031 -85.312469 C 93.104719 -85.460906 91.389875 -85.820281 90.346906 -86.117156 C 89.303938 -86.414031 87.6555 -87.007781 86.663313 -87.441375 C 85.671125 -87.878875 84.120344 -88.691375 83.198469 -89.261687 C 82.276594 -89.832 80.854719 -90.851531 80.018781 -91.542937 C 79.182844 -92.230437 77.913313 -93.437469 77.182844 -94.23825 C 76.448469 -95.035125 75.358625 -96.406219 74.745344 -97.296844 C 74.128156 -98.191375 73.237531 -99.699187 72.74925 -100.664031 C 72.264875 -101.632781 71.589094 -103.249969 71.237531 -104.277312 C 70.889875 -105.30075 70.444563 -106.996062 70.237531 -108.058562 C 70.034406 -109.124969 69.827375 -110.86325 69.772688 -111.945281 C 69.714094 -113.027312 69.843 -115.859344 69.843 -115.859344 " transform="matrix(1,0,0,-1,254.407,120.043)"/>
<path style="fill-rule:nonzero;fill:rgb(100%,94.898987%,0%);fill-opacity:1;stroke-width:0.3985;stroke-linecap:butt;stroke-linejoin:miter;stroke:rgb(100%,0%,0%);stroke-opacity:1;stroke-miterlimit:10;" d="M -28.239031 110.918 C -28.239031 110.918 -27.895281 108.253938 -27.672625 107.253938 C -27.449969 106.250031 -26.989031 104.656281 -26.637469 103.691438 C -26.285906 102.726594 -25.617937 101.210969 -25.141375 100.300813 C -24.668719 99.38675 -23.809344 97.968781 -23.2195 97.128938 C -22.629656 96.285188 -21.590594 94.992219 -20.899187 94.238313 C -20.203875 93.4805 -19.008562 92.332063 -18.2195 91.671906 C -17.434344 91.01175 -16.0945 90.031281 -15.231219 89.4805 C -14.364031 88.929719 -12.910906 88.128938 -11.981219 87.695344 C -11.047625 87.26175 -9.504656 86.664094 -8.524187 86.3555 C -7.543719 86.043 -5.934344 85.648469 -4.922625 85.472688 C -3.910906 85.293 -2.262469 85.113313 -1.235125 85.070344 C -0.211687 85.023469 1.448469 85.058625 2.471906 85.148469 C 3.495344 85.238313 5.132063 85.492219 6.135969 85.714875 C 7.135969 85.937531 8.729719 86.398469 9.694563 86.750031 C 10.659406 87.101594 12.178938 87.769563 13.089094 88.246125 C 13.99925 88.718781 15.417219 89.578156 16.260969 90.168 C 17.100813 90.753938 18.393781 91.796906 19.151594 92.488313 C 19.9055 93.183625 21.053938 94.378938 21.714094 95.168 C 22.37425 95.953156 23.354719 97.293 23.9055 98.156281 C 24.456281 99.023469 25.257063 100.476594 25.690656 101.406281 C 26.12425 102.335969 26.725813 103.882844 27.034406 104.863313 C 27.343 105.843781 27.737531 107.453156 27.917219 108.464875 C 28.093 109.476594 28.272688 111.125031 28.319563 112.152375 C 28.362531 113.175813 28.237531 115.859406 28.237531 115.859406 " transform="matrix(1,0,0,-1,254.407,120.043)"/>
<path style="fill-rule:nonzero;fill:rgb(100%,94.898987%,0%);fill-opacity:1;stroke-width:0.3985;stroke-linecap:butt;stroke-linejoin:miter;stroke:rgb(100%,0%,0%);stroke-opacity:1;stroke-miterlimit:10;" d="M 28.237531 -115.859344 C 28.237531 -115.859344 28.362531 -113.027312 28.307844 -111.945281 C 28.253156 -110.86325 28.046125 -109.124969 27.839094 -108.058562 C 27.635969 -106.996062 27.190656 -105.30075 26.843 -104.277312 C 26.491438 -103.249969 25.815656 -101.632781 25.331281 -100.664031 C 24.843 -99.699187 23.952375 -98.191375 23.335188 -97.296844 C 22.721906 -96.406219 21.628156 -95.035125 20.897688 -94.23825 C 20.167219 -93.437469 18.897688 -92.230437 18.06175 -91.542937 C 17.225813 -90.851531 15.803938 -89.832 14.882063 -89.261687 C 13.960188 -88.691375 12.409406 -87.878875 11.417219 -87.441375 C 10.425031 -87.007781 8.776594 -86.414031 7.733625 -86.117156 C 6.690656 -85.820281 4.975813 -85.460906 3.9055 -85.312469 C 2.831281 -85.160125 1.085188 -85.039031 -0.00075 -85.039031 C -1.082781 -85.039031 -2.828875 -85.160125 -3.903094 -85.312469 C -4.977312 -85.460906 -6.692156 -85.820281 -7.735125 -86.117156 C -8.774187 -86.414031 -10.422625 -87.007781 -11.414812 -87.441375 C -12.407 -87.878875 -13.957781 -88.691375 -14.879656 -89.261687 C -15.801531 -89.832 -17.227312 -90.851531 -18.06325 -91.542937 C -18.895281 -92.230437 -20.164812 -93.437469 -20.899187 -94.23825 C -21.629656 -95.035125 -22.723406 -96.406219 -23.336687 -97.296844 C -23.949969 -98.191375 -24.8445 -99.699187 -25.328875 -100.664031 C -25.817156 -101.632781 -26.492937 -103.249969 -26.840594 -104.277312 C -27.18825 -105.30075 -27.637469 -106.996062 -27.840594 -108.058562 C -28.043719 -109.124969 -28.254656 -110.86325 -28.309344 -111.945281 C -28.364031 -113.027312 -28.239031 -115.859344 -28.239031 -115.859344 " transform="matrix(1,0,0,-1,254.407,120.043)"/>
<path style="fill-rule:nonzero;fill:rgb(0%,0%,100%);fill-opacity:1;stroke-width:0.3985;stroke-linecap:butt;stroke-linejoin:miter;stroke:rgb(0%,0%,0%);stroke-opacity:1;stroke-miterlimit:10;" d="M 83.960188 112.152375 C 83.960188 112.152375 84.132063 110.820344 84.241438 110.320344 C 84.354719 109.820344 84.585188 109.023469 84.760969 108.539094 C 84.93675 108.058625 85.272688 107.296906 85.507063 106.843781 C 85.745344 106.38675 86.175031 105.679719 86.471906 105.257844 C 86.764875 104.835969 87.284406 104.191438 87.632063 103.812531 C 87.975813 103.433625 88.577375 102.859406 88.968 102.531281 C 89.362531 102.19925 90.0305 101.710969 90.464094 101.433625 C 90.897688 101.156281 91.62425 100.757844 92.089094 100.543 C 92.553938 100.32425 93.327375 100.023469 93.819563 99.871125 C 94.307844 99.714875 95.112531 99.519563 95.620344 99.429719 C 96.12425 99.339875 96.948469 99.250031 97.460188 99.226594 C 97.975813 99.207063 98.803938 99.222688 99.315656 99.269563 C 99.827375 99.312531 100.647688 99.437531 101.147688 99.550813 C 101.647688 99.660188 102.444563 99.894563 102.928938 100.070344 C 103.409406 100.242219 104.167219 100.578156 104.62425 100.816438 C 105.081281 101.054719 105.788313 101.484406 106.210188 101.777375 C 106.632063 102.070344 107.276594 102.589875 107.6555 102.937531 C 108.034406 103.285188 108.608625 103.882844 108.93675 104.277375 C 109.268781 104.668 109.757063 105.339875 110.034406 105.773469 C 110.307844 106.207063 110.710188 106.933625 110.925031 107.398469 C 111.143781 107.863313 111.444563 108.63675 111.596906 109.125031 C 111.753156 109.613313 111.948469 110.421906 112.038313 110.925813 C 112.128156 111.429719 112.218 112.257844 112.237531 112.769563 C 112.260969 113.281281 112.198469 114.621125 112.198469 114.621125 " transform="matrix(1,0,0,-1,254.407,120.043)"/>
<path style="fill-rule:nonzero;fill:rgb(0%,0%,100%);fill-opacity:1;stroke-width:0.3985;stroke-linecap:butt;stroke-linejoin:miter;stroke:rgb(0%,0%,0%);stroke-opacity:1;stroke-miterlimit:10;" d="M 112.198469 -114.621062 C 112.198469 -114.621062 112.260969 -113.207 112.233625 -112.667937 C 112.206281 -112.124969 112.100813 -111.253875 111.99925 -110.722625 C 111.897688 -110.191375 111.675031 -109.343719 111.49925 -108.832 C 111.327375 -108.320281 110.987531 -107.511687 110.745344 -107.027312 C 110.503156 -106.542937 110.053938 -105.789031 109.74925 -105.343719 C 109.440656 -104.898406 108.893781 -104.210906 108.5305 -103.812469 C 108.163313 -103.414031 107.526594 -102.808562 107.112531 -102.464812 C 106.694563 -102.121062 105.979719 -101.609344 105.518781 -101.324187 C 105.057844 -101.039031 104.284406 -100.632781 103.788313 -100.414031 C 103.292219 -100.195281 102.468 -99.898406 101.948469 -99.753875 C 101.425031 -99.605437 100.569563 -99.42575 100.0305 -99.347625 C 99.495344 -99.273406 98.620344 -99.214812 98.081281 -99.214812 C 97.538313 -99.214812 96.663313 -99.273406 96.128156 -99.347625 C 95.593 -99.42575 94.733625 -99.605437 94.214094 -99.753875 C 93.690656 -99.898406 92.866438 -100.195281 92.37425 -100.414031 C 91.878156 -100.632781 91.100813 -101.039031 90.639875 -101.324187 C 90.178938 -101.609344 89.468 -102.121062 89.050031 -102.464812 C 88.632063 -102.808562 87.995344 -103.414031 87.632063 -103.812469 C 87.264875 -104.210906 86.718 -104.898406 86.413313 -105.343719 C 86.104719 -105.789031 85.659406 -106.542937 85.413313 -107.027312 C 85.171125 -107.511687 84.835188 -108.320281 84.659406 -108.832 C 84.487531 -109.343719 84.260969 -110.191375 84.159406 -110.722625 C 84.057844 -111.253875 83.952375 -112.124969 83.925031 -112.667937 C 83.897688 -113.207 83.960188 -114.621062 83.960188 -114.621062 " transform="matrix(1,0,0,-1,254.407,120.043)"/>
<path style="fill-rule:nonzero;fill:rgb(0%,0%,100%);fill-opacity:1;stroke-width:0.3985;stroke-linecap:butt;stroke-linejoin:miter;stroke:rgb(0%,0%,0%);stroke-opacity:1;stroke-miterlimit:10;" d="M -14.117937 112.152375 C -14.117937 112.152375 -13.946062 110.820344 -13.836687 110.320344 C -13.727312 109.820344 -13.492937 109.023469 -13.317156 108.539094 C -13.141375 108.058625 -12.809344 107.296906 -12.571062 106.843781 C -12.332781 106.38675 -11.903094 105.679719 -11.610125 105.257844 C -11.317156 104.835969 -10.797625 104.191438 -10.449969 103.812531 C -10.102312 103.433625 -9.504656 102.859406 -9.110125 102.531281 C -8.715594 102.19925 -8.047625 101.710969 -7.614031 101.433625 C -7.180437 101.156281 -6.453875 100.757844 -5.989031 100.543 C -5.524187 100.32425 -4.75075 100.023469 -4.262469 99.871125 C -3.770281 99.714875 -2.965594 99.519563 -2.461687 99.429719 C -1.953875 99.339875 -1.129656 99.250031 -0.617937 99.226594 C -0.106219 99.207063 0.725813 99.222688 1.233625 99.269563 C 1.745344 99.312531 2.565656 99.437531 3.065656 99.550813 C 3.569563 99.660188 4.366438 99.894563 4.846906 100.070344 C 5.331281 100.242219 6.089094 100.578156 6.542219 100.816438 C 6.99925 101.054719 7.710188 101.484406 8.128156 101.777375 C 8.550031 102.070344 9.198469 102.589875 9.573469 102.937531 C 9.952375 103.285188 10.526594 103.882844 10.858625 104.277375 C 11.18675 104.668 11.678938 105.339875 11.952375 105.773469 C 12.229719 106.207063 12.628156 106.933625 12.846906 107.398469 C 13.06175 107.863313 13.362531 108.63675 13.514875 109.125031 C 13.671125 109.613313 13.870344 110.421906 13.956281 110.925813 C 14.046125 111.429719 14.135969 112.257844 14.159406 112.769563 C 14.182844 113.281281 14.120344 114.621125 14.120344 114.621125 " transform="matrix(1,0,0,-1,254.407,120.043)"/>
<path style="fill-rule:nonzero;fill:rgb(0%,0%,100%);fill-opacity:1;stroke-width:0.3985;stroke-linecap:butt;stroke-linejoin:miter;stroke:rgb(0%,0%,0%);stroke-opacity:1;stroke-miterlimit:10;" d="M 14.120344 -114.621062 C 14.120344 -114.621062 14.182844 -113.207 14.1555 -112.667937 C 14.128156 -112.124969 14.022688 -111.253875 13.921125 -110.722625 C 13.819563 -110.191375 13.593 -109.343719 13.421125 -108.832 C 13.245344 -108.320281 12.909406 -107.511687 12.663313 -107.027312 C 12.421125 -106.542937 11.975813 -105.789031 11.667219 -105.343719 C 11.362531 -104.898406 10.815656 -104.210906 10.448469 -103.812469 C 10.081281 -103.414031 9.448469 -102.808562 9.0305 -102.464812 C 8.612531 -102.121062 7.901594 -101.609344 7.440656 -101.324187 C 6.979719 -101.039031 6.202375 -100.632781 5.706281 -100.414031 C 5.210188 -100.195281 4.389875 -99.898406 3.866438 -99.753875 C 3.346906 -99.605437 2.487531 -99.42575 1.952375 -99.347625 C 1.413313 -99.273406 0.542219 -99.214812 -0.00075 -99.214812 C -0.539812 -99.214812 -1.414812 -99.273406 -1.949969 -99.347625 C -2.489031 -99.42575 -3.3445 -99.605437 -3.867937 -99.753875 C -4.387469 -99.898406 -5.211687 -100.195281 -5.707781 -100.414031 C -6.203875 -100.632781 -6.977312 -101.039031 -7.43825 -101.324187 C -7.899187 -101.609344 -8.614031 -102.121062 -9.032 -102.464812 C -9.446062 -102.808562 -10.082781 -103.414031 -10.449969 -103.812469 C -10.81325 -104.210906 -11.360125 -104.898406 -11.668719 -105.343719 C -11.977312 -105.789031 -12.422625 -106.542937 -12.664812 -107.027312 C -12.907 -107.511687 -13.246844 -108.320281 -13.418719 -108.832 C -13.5945 -109.343719 -13.817156 -110.191375 -13.918719 -110.722625 C -14.020281 -111.253875 -14.12575 -112.124969 -14.153094 -112.667937 C -14.180437 -113.207 -14.117937 -114.621062 -14.117937 -114.621062 " transform="matrix(1,0,0,-1,254.407,120.043)"/>
<path style="fill:none;stroke-width:0.3985;stroke-linecap:butt;stroke-linejoin:miter;stroke:rgb(0%,0%,0%);stroke-opacity:1;stroke-miterlimit:10;" d="M 267.46875 14.199219 L 484.445312 14.199219 " transform="matrix(1,0,0,-1,-48,15)"/>
<path style="fill:none;stroke-width:0.3985;stroke-linecap:butt;stroke-linejoin:miter;stroke:rgb(0%,0%,0%);stroke-opacity:1;stroke-miterlimit:10;" d="M 267.667969 -224.285156 L 267.667969 14.199219 " transform="matrix(1,0,0,-1,-48,15)"/>
<path style="fill:none;stroke-width:0.3985;stroke-linecap:butt;stroke-linejoin:miter;stroke:rgb(0%,0%,0%);stroke-opacity:1;stroke-miterlimit:10;" d="M 484.246094 -224.285156 L 484.246094 14.199219 " transform="matrix(1,0,0,-1,-48,15)"/>
<path style="fill:none;stroke-width:0.3985;stroke-linecap:butt;stroke-linejoin:miter;stroke:rgb(0%,0%,0%);stroke-opacity:1;stroke-miterlimit:10;" d="M 267.46875 -224.285156 L 484.445312 -224.285156 " transform="matrix(1,0,0,-1,-48,15)"/>
</g>
</svg>
